<svg width="221" height="75" viewBox="0 0 221 75" fill="none" xmlns="http://www.w3.org/2000/svg">
<path d="M95.112 47.1984C95.112 48.6704 95.4427 49.9611 96.104 51.0704C96.7867 52.1584 97.672 53.0011 98.76 53.5984C99.848 54.1744 101.032 54.4624 102.312 54.4624C103.379 54.4624 104.328 54.3238 105.16 54.0464C105.992 53.7691 106.739 53.3958 107.4 52.9264C108.083 52.4571 108.669 51.9451 109.16 51.3904V56.5424C108.243 57.2678 107.24 57.8331 106.152 58.2384C105.085 58.6438 103.731 58.8464 102.088 58.8464C100.381 58.8464 98.792 58.5691 97.32 58.0144C95.8693 57.4598 94.6 56.6598 93.512 55.6144C92.4453 54.5691 91.6133 53.3424 91.016 51.9344C90.44 50.5051 90.152 48.9264 90.152 47.1984C90.152 45.4704 90.44 43.9024 91.016 42.4944C91.6133 41.0651 92.4453 39.8278 93.512 38.7824C94.6 37.7371 95.8693 36.9371 97.32 36.3824C98.792 35.8278 100.381 35.5504 102.088 35.5504C103.731 35.5504 105.085 35.7531 106.152 36.1584C107.24 36.5638 108.243 37.1291 109.16 37.8544V43.0064C108.669 42.4518 108.083 41.9398 107.4 41.4704C106.739 41.0011 105.992 40.6278 105.16 40.3504C104.328 40.0731 103.379 39.9344 102.312 39.9344C101.032 39.9344 99.848 40.2331 98.76 40.8304C97.672 41.4064 96.7867 42.2384 96.104 43.3264C95.4427 44.4144 95.112 45.7051 95.112 47.1984ZM112.337 51.0384C112.337 49.5024 112.689 48.1584 113.393 47.0064C114.119 45.8544 115.089 44.9584 116.305 44.3184C117.543 43.6784 118.94 43.3584 120.497 43.3584C122.055 43.3584 123.441 43.6784 124.657 44.3184C125.895 44.9584 126.865 45.8544 127.569 47.0064C128.295 48.1584 128.657 49.5024 128.657 51.0384C128.657 52.5531 128.295 53.8971 127.569 55.0704C126.865 56.2224 125.895 57.1184 124.657 57.7584C123.441 58.3984 122.055 58.7184 120.497 58.7184C118.94 58.7184 117.543 58.3984 116.305 57.7584C115.089 57.1184 114.119 56.2224 113.393 55.0704C112.689 53.8971 112.337 52.5531 112.337 51.0384ZM116.561 51.0384C116.561 51.8704 116.732 52.6064 117.073 53.2464C117.436 53.8651 117.916 54.3558 118.513 54.7184C119.111 55.0598 119.772 55.2304 120.497 55.2304C121.223 55.2304 121.884 55.0598 122.481 54.7184C123.079 54.3558 123.548 53.8651 123.889 53.2464C124.252 52.6064 124.433 51.8704 124.433 51.0384C124.433 50.2064 124.252 49.4704 123.889 48.8304C123.548 48.1904 123.079 47.6998 122.481 47.3584C121.884 47.0171 121.223 46.8464 120.497 46.8464C119.772 46.8464 119.111 47.0171 118.513 47.3584C117.916 47.6998 117.436 48.1904 117.073 48.8304C116.732 49.4704 116.561 50.2064 116.561 51.0384ZM141.271 49.4384C141.271 48.4571 141.079 47.7104 140.695 47.1984C140.311 46.6864 139.692 46.4304 138.839 46.4304C138.263 46.4304 137.751 46.5584 137.303 46.8144C136.855 47.0491 136.513 47.3904 136.279 47.8384C136.044 48.2864 135.927 48.8198 135.927 49.4384V58.3984H131.767V43.6784H135.927V45.9184C136.375 45.0864 136.961 44.4571 137.687 44.0304C138.433 43.5824 139.329 43.3584 140.375 43.3584C142.124 43.3584 143.425 43.8598 144.279 44.8624C145.132 45.8438 145.559 47.2198 145.559 48.9904V58.3984H141.271V49.4384ZM153.706 33.4384V58.3984H149.546V33.4384H153.706ZM165.802 51.0384C165.802 52.6598 165.471 54.0464 164.81 55.1984C164.148 56.3504 163.274 57.2251 162.186 57.8224C161.119 58.4198 159.967 58.7184 158.73 58.7184C157.514 58.7184 156.426 58.4091 155.466 57.7904C154.527 57.1718 153.78 56.2864 153.226 55.1344C152.671 53.9824 152.394 52.6171 152.394 51.0384C152.394 49.4384 152.671 48.0731 153.226 46.9424C153.78 45.7904 154.527 44.9051 155.466 44.2864C156.426 43.6678 157.514 43.3584 158.73 43.3584C159.967 43.3584 161.119 43.6571 162.186 44.2544C163.274 44.8518 164.148 45.7264 164.81 46.8784C165.471 48.0091 165.802 49.3958 165.802 51.0384ZM161.514 51.0384C161.514 50.1638 161.332 49.4064 160.97 48.7664C160.607 48.1264 160.116 47.6358 159.498 47.2944C158.9 46.9531 158.239 46.7824 157.514 46.7824C156.895 46.7824 156.287 46.9531 155.69 47.2944C155.114 47.6144 154.634 48.0944 154.25 48.7344C153.887 49.3744 153.706 50.1424 153.706 51.0384C153.706 51.9344 153.887 52.7024 154.25 53.3424C154.634 53.9824 155.114 54.4731 155.69 54.8144C156.287 55.1344 156.895 55.2944 157.514 55.2944C158.239 55.2944 158.9 55.1238 159.498 54.7824C160.116 54.4411 160.607 53.9504 160.97 53.3104C161.332 52.6704 161.514 51.9131 161.514 51.0384ZM173.18 52.6384C173.18 53.5984 173.372 54.3451 173.756 54.8784C174.14 55.3904 174.758 55.6464 175.612 55.6464C176.209 55.6464 176.721 55.5291 177.148 55.2944C177.596 55.0384 177.937 54.6864 178.172 54.2384C178.428 53.7904 178.556 53.2571 178.556 52.6384V43.6784H182.684V58.3984H178.556V56.1584C178.086 56.9904 177.489 57.6304 176.764 58.0784C176.038 58.5051 175.153 58.7184 174.108 58.7184C172.358 58.7184 171.046 58.2171 170.172 57.2144C169.318 56.2118 168.892 54.8358 168.892 53.0864V43.6784H173.18V52.6384ZM186.575 37.9824C186.575 37.2998 186.82 36.7451 187.311 36.3184C187.801 35.8704 188.388 35.6464 189.071 35.6464C189.753 35.6464 190.329 35.8704 190.799 36.3184C191.289 36.7451 191.535 37.2998 191.535 37.9824C191.535 38.6438 191.289 39.1984 190.799 39.6464C190.329 40.0944 189.753 40.3184 189.071 40.3184C188.388 40.3184 187.801 40.0944 187.311 39.6464C186.82 39.1984 186.575 38.6438 186.575 37.9824ZM187.023 43.6784H191.055V58.3984H187.023V43.6784ZM195.454 33.4384H199.614V58.3984H195.454V33.4384ZM214.808 33.4384H218.968V58.3984H214.808V33.4384ZM202.712 51.0384C202.712 49.3958 203.043 48.0091 203.704 46.8784C204.366 45.7264 205.24 44.8518 206.328 44.2544C207.416 43.6571 208.568 43.3584 209.784 43.3584C211.022 43.3584 212.11 43.6678 213.048 44.2864C214.008 44.9051 214.755 45.7904 215.288 46.9424C215.843 48.0731 216.12 49.4384 216.12 51.0384C216.12 52.6171 215.843 53.9824 215.288 55.1344C214.755 56.2864 214.008 57.1718 213.048 57.7904C212.11 58.4091 211.022 58.7184 209.784 58.7184C208.568 58.7184 207.416 58.4198 206.328 57.8224C205.24 57.2251 204.366 56.3504 203.704 55.1984C203.043 54.0464 202.712 52.6598 202.712 51.0384ZM207 51.0384C207 51.9131 207.182 52.6704 207.544 53.3104C207.907 53.9504 208.398 54.4411 209.016 54.7824C209.635 55.1238 210.296 55.2944 211 55.2944C211.619 55.2944 212.216 55.1344 212.792 54.8144C213.39 54.4731 213.87 53.9824 214.232 53.3424C214.616 52.7024 214.808 51.9344 214.808 51.0384C214.808 50.1424 214.616 49.3744 214.232 48.7344C213.87 48.0944 213.39 47.6144 212.792 47.2944C212.216 46.9531 211.619 46.7824 211 46.7824C210.296 46.7824 209.635 46.9531 209.016 47.2944C208.398 47.6358 207.907 48.1264 207.544 48.7664C207.182 49.4064 207 50.1638 207 51.0384Z" fill="white"/>
<path opacity="0.7" d="M93.298 24.0337C92.6447 24.0337 92.0707 23.9077 91.576 23.6557C91.0813 23.3944 90.694 23.0304 90.414 22.5637C90.1433 22.0877 90.008 21.5417 90.008 20.9257V17.0757C90.008 16.469 90.1433 15.9324 90.414 15.4657C90.694 14.999 91.0813 14.6397 91.576 14.3877C92.0707 14.1264 92.6447 13.9957 93.298 13.9957C93.9513 13.9957 94.5253 14.1217 95.02 14.3737C95.5147 14.6257 95.8973 14.9804 96.168 15.4377C96.448 15.895 96.588 16.4224 96.588 17.0197C96.588 17.0664 96.574 17.1037 96.546 17.1317C96.518 17.1597 96.4853 17.1737 96.448 17.1737L95.734 17.2157C95.6407 17.2157 95.594 17.1737 95.594 17.0897V17.0477C95.594 16.385 95.384 15.8577 94.964 15.4657C94.544 15.0644 93.9887 14.8637 93.298 14.8637C92.6073 14.8637 92.052 15.0644 91.632 15.4657C91.212 15.867 91.002 16.3944 91.002 17.0477V20.9677C91.002 21.621 91.212 22.1484 91.632 22.5497C92.052 22.951 92.6073 23.1517 93.298 23.1517C93.9887 23.1517 94.544 22.9557 94.964 22.5637C95.384 22.1624 95.594 21.6304 95.594 20.9677V20.9397C95.594 20.8557 95.6407 20.8137 95.734 20.8137L96.448 20.8557C96.5413 20.8557 96.588 20.8977 96.588 20.9817C96.588 21.5884 96.448 22.125 96.168 22.5917C95.8973 23.049 95.5147 23.4037 95.02 23.6557C94.5253 23.9077 93.9513 24.0337 93.298 24.0337ZM101.312 24.0197C100.64 24.0197 100.062 23.847 99.5762 23.5017C99.0909 23.1564 98.7549 22.6804 98.5682 22.0737C98.4376 21.6444 98.3722 21.0704 98.3722 20.3517C98.3722 19.633 98.4376 19.0637 98.5682 18.6437C98.7456 18.0464 99.0769 17.575 99.5622 17.2297C100.048 16.8844 100.636 16.7117 101.326 16.7117C101.989 16.7117 102.558 16.8844 103.034 17.2297C103.52 17.575 103.851 18.0417 104.028 18.6297C104.159 19.031 104.224 19.605 104.224 20.3517C104.224 21.1077 104.159 21.6817 104.028 22.0737C103.851 22.6804 103.52 23.1564 103.034 23.5017C102.558 23.847 101.984 24.0197 101.312 24.0197ZM101.312 23.1517C101.76 23.1517 102.143 23.0304 102.46 22.7877C102.778 22.5357 102.992 22.1997 103.104 21.7797C103.188 21.4437 103.23 20.9724 103.23 20.3657C103.23 19.7497 103.193 19.2784 103.118 18.9517C103.006 18.5317 102.787 18.2004 102.46 17.9577C102.143 17.7057 101.756 17.5797 101.298 17.5797C100.841 17.5797 100.454 17.7057 100.136 17.9577C99.8189 18.2004 99.6042 18.5317 99.4922 18.9517C99.4176 19.2784 99.3802 19.7497 99.3802 20.3657C99.3802 20.9817 99.4176 21.453 99.4922 21.7797C99.5949 22.1997 99.8049 22.5357 100.122 22.7877C100.449 23.0304 100.846 23.1517 101.312 23.1517ZM109.179 16.7257C109.926 16.7257 110.518 16.945 110.957 17.3837C111.405 17.8224 111.629 18.4104 111.629 19.1477V23.7677C111.629 23.861 111.582 23.9077 111.489 23.9077H110.775C110.682 23.9077 110.635 23.861 110.635 23.7677V19.3437C110.635 18.8304 110.476 18.4104 110.159 18.0837C109.851 17.757 109.45 17.5937 108.955 17.5937C108.442 17.5937 108.026 17.7524 107.709 18.0697C107.392 18.387 107.233 18.8024 107.233 19.3157V23.7677C107.233 23.861 107.186 23.9077 107.093 23.9077H106.379C106.286 23.9077 106.239 23.861 106.239 23.7677V16.9637C106.239 16.8704 106.286 16.8237 106.379 16.8237H107.093C107.186 16.8237 107.233 16.8704 107.233 16.9637V17.5657C107.233 17.5844 107.238 17.5984 107.247 17.6077C107.266 17.617 107.28 17.6124 107.289 17.5937C107.7 17.015 108.33 16.7257 109.179 16.7257ZM116.11 23.9777C115.587 23.9777 115.121 23.8937 114.71 23.7257C114.309 23.5577 113.996 23.3337 113.772 23.0537C113.557 22.7737 113.45 22.461 113.45 22.1157V21.9477C113.45 21.8544 113.497 21.8077 113.59 21.8077H114.262C114.355 21.8077 114.402 21.8544 114.402 21.9477V22.0597C114.402 22.3677 114.561 22.6384 114.878 22.8717C115.205 23.0957 115.611 23.2077 116.096 23.2077C116.581 23.2077 116.973 23.1004 117.272 22.8857C117.571 22.6617 117.72 22.3817 117.72 22.0457C117.72 21.8124 117.641 21.621 117.482 21.4717C117.333 21.3224 117.151 21.2057 116.936 21.1217C116.731 21.0377 116.409 20.9304 115.97 20.7997C115.447 20.6504 115.018 20.501 114.682 20.3517C114.346 20.2024 114.061 19.997 113.828 19.7357C113.604 19.465 113.492 19.1244 113.492 18.7137C113.492 18.1164 113.725 17.6404 114.192 17.2857C114.659 16.931 115.275 16.7537 116.04 16.7537C116.553 16.7537 117.006 16.8377 117.398 17.0057C117.799 17.1737 118.107 17.407 118.322 17.7057C118.537 17.995 118.644 18.3217 118.644 18.6857V18.7277C118.644 18.821 118.597 18.8677 118.504 18.8677H117.846C117.753 18.8677 117.706 18.821 117.706 18.7277V18.6857C117.706 18.3684 117.552 18.1024 117.244 17.8877C116.945 17.673 116.539 17.5657 116.026 17.5657C115.55 17.5657 115.167 17.6637 114.878 17.8597C114.589 18.0464 114.444 18.3077 114.444 18.6437C114.444 18.961 114.584 19.2037 114.864 19.3717C115.144 19.5397 115.578 19.7077 116.166 19.8757C116.707 20.0344 117.146 20.1837 117.482 20.3237C117.818 20.4637 118.107 20.669 118.35 20.9397C118.593 21.201 118.714 21.5464 118.714 21.9757C118.714 22.5824 118.476 23.0677 118 23.4317C117.524 23.7957 116.894 23.9777 116.11 23.9777ZM123.691 17.5097C123.691 17.603 123.644 17.6497 123.551 17.6497H121.969C121.931 17.6497 121.913 17.6684 121.913 17.7057V21.8357C121.913 22.2837 122.011 22.601 122.207 22.7877C122.412 22.965 122.729 23.0537 123.159 23.0537H123.509C123.602 23.0537 123.649 23.1004 123.649 23.1937V23.7677C123.649 23.861 123.602 23.9077 123.509 23.9077C123.397 23.917 123.224 23.9217 122.991 23.9217C122.319 23.9217 121.81 23.7957 121.465 23.5437C121.119 23.2917 120.947 22.825 120.947 22.1437V17.7057C120.947 17.6684 120.928 17.6497 120.891 17.6497H120.037C119.943 17.6497 119.897 17.603 119.897 17.5097V16.9637C119.897 16.8704 119.943 16.8237 120.037 16.8237H120.891C120.928 16.8237 120.947 16.805 120.947 16.7677V15.1437C120.947 15.0504 120.993 15.0037 121.087 15.0037H121.773C121.866 15.0037 121.913 15.0504 121.913 15.1437V16.7677C121.913 16.805 121.931 16.8237 121.969 16.8237H123.551C123.644 16.8237 123.691 16.8704 123.691 16.9637V17.5097ZM128.468 16.7537C128.776 16.7537 129.042 16.8144 129.266 16.9357C129.341 16.973 129.369 17.0337 129.35 17.1177L129.196 17.8037C129.168 17.897 129.108 17.925 129.014 17.8877C128.856 17.8224 128.674 17.7897 128.468 17.7897L128.286 17.8037C127.801 17.8224 127.4 18.0044 127.082 18.3497C126.765 18.6857 126.606 19.115 126.606 19.6377V23.7677C126.606 23.861 126.56 23.9077 126.466 23.9077H125.752C125.659 23.9077 125.612 23.861 125.612 23.7677V16.9637C125.612 16.8704 125.659 16.8237 125.752 16.8237H126.466C126.56 16.8237 126.606 16.8704 126.606 16.9637V17.8177C126.606 17.8457 126.611 17.8644 126.62 17.8737C126.639 17.8737 126.653 17.8644 126.662 17.8457C126.858 17.5004 127.106 17.2344 127.404 17.0477C127.712 16.8517 128.067 16.7537 128.468 16.7537ZM134.996 16.9637C134.996 16.8704 135.042 16.8237 135.136 16.8237H135.85C135.943 16.8237 135.99 16.8704 135.99 16.9637V23.7677C135.99 23.861 135.943 23.9077 135.85 23.9077H135.136C135.042 23.9077 134.996 23.861 134.996 23.7677V23.1657C134.996 23.147 134.986 23.133 134.968 23.1237C134.949 23.1144 134.935 23.119 134.926 23.1377C134.534 23.7164 133.913 24.0057 133.064 24.0057C132.616 24.0057 132.2 23.917 131.818 23.7397C131.444 23.553 131.146 23.287 130.922 22.9417C130.707 22.5964 130.6 22.181 130.6 21.6957V16.9637C130.6 16.8704 130.646 16.8237 130.74 16.8237H131.454C131.547 16.8237 131.594 16.8704 131.594 16.9637V21.4017C131.594 21.9337 131.743 22.3584 132.042 22.6757C132.34 22.9837 132.746 23.1377 133.26 23.1377C133.792 23.1377 134.212 22.979 134.52 22.6617C134.837 22.3444 134.996 21.9244 134.996 21.4017V16.9637ZM140.892 24.0197C140.22 24.0197 139.641 23.847 139.156 23.5017C138.68 23.147 138.353 22.671 138.176 22.0737C138.054 21.663 137.994 21.0844 137.994 20.3377C137.994 19.6657 138.054 19.0964 138.176 18.6297C138.344 18.051 138.67 17.589 139.156 17.2437C139.641 16.889 140.22 16.7117 140.892 16.7117C141.573 16.7117 142.161 16.8844 142.656 17.2297C143.16 17.575 143.486 18.0044 143.636 18.5177C143.682 18.6857 143.71 18.8257 143.72 18.9377V18.9657C143.72 19.031 143.678 19.073 143.594 19.0917L142.894 19.1897H142.866C142.8 19.1897 142.758 19.1477 142.74 19.0637L142.698 18.8537C142.614 18.499 142.408 18.2004 142.082 17.9577C141.755 17.7057 141.358 17.5797 140.892 17.5797C140.425 17.5797 140.033 17.7057 139.716 17.9577C139.408 18.2004 139.207 18.527 139.114 18.9377C139.03 19.2924 138.988 19.7637 138.988 20.3517C138.988 20.9677 139.03 21.4437 139.114 21.7797C139.207 22.1997 139.408 22.5357 139.716 22.7877C140.033 23.0304 140.425 23.1517 140.892 23.1517C141.349 23.1517 141.741 23.035 142.068 22.8017C142.404 22.559 142.614 22.251 142.698 21.8777V21.8217L142.712 21.7657C142.721 21.6724 142.777 21.635 142.88 21.6537L143.566 21.7657C143.659 21.7844 143.701 21.8357 143.692 21.9197L143.636 22.1997C143.496 22.741 143.174 23.1797 142.67 23.5157C142.166 23.8517 141.573 24.0197 140.892 24.0197ZM148.669 17.5097C148.669 17.603 148.622 17.6497 148.529 17.6497H146.947C146.91 17.6497 146.891 17.6684 146.891 17.7057V21.8357C146.891 22.2837 146.989 22.601 147.185 22.7877C147.39 22.965 147.708 23.0537 148.137 23.0537H148.487C148.58 23.0537 148.627 23.1004 148.627 23.1937V23.7677C148.627 23.861 148.58 23.9077 148.487 23.9077C148.375 23.917 148.202 23.9217 147.969 23.9217C147.297 23.9217 146.788 23.7957 146.443 23.5437C146.098 23.2917 145.925 22.825 145.925 22.1437V17.7057C145.925 17.6684 145.906 17.6497 145.869 17.6497H145.015C144.922 17.6497 144.875 17.603 144.875 17.5097V16.9637C144.875 16.8704 144.922 16.8237 145.015 16.8237H145.869C145.906 16.8237 145.925 16.805 145.925 16.7677V15.1437C145.925 15.0504 145.972 15.0037 146.065 15.0037H146.751C146.844 15.0037 146.891 15.0504 146.891 15.1437V16.7677C146.891 16.805 146.91 16.8237 146.947 16.8237H148.529C148.622 16.8237 148.669 16.8704 148.669 16.9637V17.5097ZM151.263 15.5357C151.039 15.5357 150.852 15.461 150.703 15.3117C150.553 15.1624 150.479 14.9757 150.479 14.7517C150.479 14.5184 150.553 14.3317 150.703 14.1917C150.852 14.0424 151.039 13.9677 151.263 13.9677C151.487 13.9677 151.673 14.0424 151.823 14.1917C151.972 14.3317 152.047 14.5184 152.047 14.7517C152.047 14.9757 151.972 15.1624 151.823 15.3117C151.673 15.461 151.487 15.5357 151.263 15.5357ZM150.871 23.8937C150.777 23.8937 150.731 23.847 150.731 23.7537V16.9497C150.731 16.8564 150.777 16.8097 150.871 16.8097H151.585C151.678 16.8097 151.725 16.8564 151.725 16.9497V23.7537C151.725 23.847 151.678 23.8937 151.585 23.8937H150.871ZM156.861 24.0197C156.189 24.0197 155.61 23.847 155.125 23.5017C154.64 23.1564 154.304 22.6804 154.117 22.0737C153.986 21.6444 153.921 21.0704 153.921 20.3517C153.921 19.633 153.986 19.0637 154.117 18.6437C154.294 18.0464 154.626 17.575 155.111 17.2297C155.596 16.8844 156.184 16.7117 156.875 16.7117C157.538 16.7117 158.107 16.8844 158.583 17.2297C159.068 17.575 159.4 18.0417 159.577 18.6297C159.708 19.031 159.773 19.605 159.773 20.3517C159.773 21.1077 159.708 21.6817 159.577 22.0737C159.4 22.6804 159.068 23.1564 158.583 23.5017C158.107 23.847 157.533 24.0197 156.861 24.0197ZM156.861 23.1517C157.309 23.1517 157.692 23.0304 158.009 22.7877C158.326 22.5357 158.541 22.1997 158.653 21.7797C158.737 21.4437 158.779 20.9724 158.779 20.3657C158.779 19.7497 158.742 19.2784 158.667 18.9517C158.555 18.5317 158.336 18.2004 158.009 17.9577C157.692 17.7057 157.304 17.5797 156.847 17.5797C156.39 17.5797 156.002 17.7057 155.685 17.9577C155.368 18.2004 155.153 18.5317 155.041 18.9517C154.966 19.2784 154.929 19.7497 154.929 20.3657C154.929 20.9817 154.966 21.453 155.041 21.7797C155.144 22.1997 155.354 22.5357 155.671 22.7877C155.998 23.0304 156.394 23.1517 156.861 23.1517ZM164.728 16.7257C165.475 16.7257 166.067 16.945 166.506 17.3837C166.954 17.8224 167.178 18.4104 167.178 19.1477V23.7677C167.178 23.861 167.131 23.9077 167.038 23.9077H166.324C166.231 23.9077 166.184 23.861 166.184 23.7677V19.3437C166.184 18.8304 166.025 18.4104 165.708 18.0837C165.4 17.757 164.999 17.5937 164.504 17.5937C163.991 17.5937 163.575 17.7524 163.258 18.0697C162.941 18.387 162.782 18.8024 162.782 19.3157V23.7677C162.782 23.861 162.735 23.9077 162.642 23.9077H161.928C161.835 23.9077 161.788 23.861 161.788 23.7677V16.9637C161.788 16.8704 161.835 16.8237 161.928 16.8237H162.642C162.735 16.8237 162.782 16.8704 162.782 16.9637V17.5657C162.782 17.5844 162.787 17.5984 162.796 17.6077C162.815 17.617 162.829 17.6124 162.838 17.5937C163.249 17.015 163.879 16.7257 164.728 16.7257ZM177.248 18.7977C177.201 18.8257 177.201 18.8537 177.248 18.8817C177.752 19.087 178.134 19.3904 178.396 19.7917C178.657 20.193 178.788 20.6784 178.788 21.2477C178.788 22.0877 178.517 22.741 177.976 23.2077C177.444 23.6744 176.739 23.9077 175.862 23.9077H172.474C172.38 23.9077 172.334 23.861 172.334 23.7677V14.2477C172.334 14.1544 172.38 14.1077 172.474 14.1077H175.764C176.669 14.1077 177.378 14.3317 177.892 14.7797C178.414 15.2277 178.676 15.8577 178.676 16.6697C178.676 17.183 178.55 17.6217 178.298 17.9857C178.055 18.3404 177.705 18.611 177.248 18.7977ZM173.384 14.9757C173.346 14.9757 173.328 14.9944 173.328 15.0317V18.3917C173.328 18.429 173.346 18.4477 173.384 18.4477H175.764C176.352 18.4477 176.818 18.2937 177.164 17.9857C177.518 17.6777 177.696 17.267 177.696 16.7537C177.696 16.2124 177.518 15.783 177.164 15.4657C176.818 15.139 176.352 14.9757 175.764 14.9757H173.384ZM175.862 23.0257C176.45 23.0257 176.916 22.8577 177.262 22.5217C177.616 22.1857 177.794 21.733 177.794 21.1637C177.794 20.5944 177.612 20.1417 177.248 19.8057C176.893 19.4604 176.412 19.2877 175.806 19.2877H173.384C173.346 19.2877 173.328 19.3064 173.328 19.3437V22.9697C173.328 23.007 173.346 23.0257 173.384 23.0257H175.862ZM185.008 16.9637C185.008 16.8704 185.054 16.8237 185.148 16.8237H185.862C185.955 16.8237 186.002 16.8704 186.002 16.9637V23.7677C186.002 23.861 185.955 23.9077 185.862 23.9077H185.148C185.054 23.9077 185.008 23.861 185.008 23.7677V23.1657C185.008 23.147 184.998 23.133 184.98 23.1237C184.961 23.1144 184.947 23.119 184.938 23.1377C184.546 23.7164 183.925 24.0057 183.076 24.0057C182.628 24.0057 182.212 23.917 181.83 23.7397C181.456 23.553 181.158 23.287 180.934 22.9417C180.719 22.5964 180.612 22.181 180.612 21.6957V16.9637C180.612 16.8704 180.658 16.8237 180.752 16.8237H181.466C181.559 16.8237 181.606 16.8704 181.606 16.9637V21.4017C181.606 21.9337 181.755 22.3584 182.054 22.6757C182.352 22.9837 182.758 23.1377 183.272 23.1377C183.804 23.1377 184.224 22.979 184.532 22.6617C184.849 22.3444 185.008 21.9244 185.008 21.4017V16.9637ZM188.901 15.5357C188.677 15.5357 188.491 15.461 188.341 15.3117C188.192 15.1624 188.117 14.9757 188.117 14.7517C188.117 14.5184 188.192 14.3317 188.341 14.1917C188.491 14.0424 188.677 13.9677 188.901 13.9677C189.125 13.9677 189.312 14.0424 189.461 14.1917C189.611 14.3317 189.685 14.5184 189.685 14.7517C189.685 14.9757 189.611 15.1624 189.461 15.3117C189.312 15.461 189.125 15.5357 188.901 15.5357ZM188.509 23.8937C188.416 23.8937 188.369 23.847 188.369 23.7537V16.9497C188.369 16.8564 188.416 16.8097 188.509 16.8097H189.223C189.317 16.8097 189.363 16.8564 189.363 16.9497V23.7537C189.363 23.847 189.317 23.8937 189.223 23.8937H188.509ZM191.938 23.9077C191.844 23.9077 191.798 23.861 191.798 23.7677V14.2477C191.798 14.1544 191.844 14.1077 191.938 14.1077H192.652C192.745 14.1077 192.792 14.1544 192.792 14.2477V23.7677C192.792 23.861 192.745 23.9077 192.652 23.9077H191.938ZM199.42 14.2477C199.42 14.1544 199.467 14.1077 199.56 14.1077H200.274C200.368 14.1077 200.414 14.1544 200.414 14.2477V23.7677C200.414 23.861 200.368 23.9077 200.274 23.9077H199.56C199.467 23.9077 199.42 23.861 199.42 23.7677V23.1797C199.42 23.161 199.411 23.1517 199.392 23.1517C199.383 23.1424 199.369 23.147 199.35 23.1657C199.145 23.4364 198.888 23.6464 198.58 23.7957C198.282 23.945 197.946 24.0197 197.572 24.0197C196.919 24.0197 196.368 23.8517 195.92 23.5157C195.482 23.1797 195.178 22.7224 195.01 22.1437C194.88 21.7237 194.814 21.131 194.814 20.3657C194.814 19.591 194.87 19.0124 194.982 18.6297C195.15 18.0324 195.458 17.5657 195.906 17.2297C196.354 16.8844 196.91 16.7117 197.572 16.7117C197.936 16.7117 198.272 16.7864 198.58 16.9357C198.888 17.0757 199.145 17.281 199.35 17.5517C199.369 17.5704 199.383 17.5797 199.392 17.5797C199.411 17.5704 199.42 17.5564 199.42 17.5377V14.2477ZM199.168 22.0737C199.252 21.887 199.313 21.6677 199.35 21.4157C199.388 21.1637 199.406 20.8137 199.406 20.3657C199.406 19.9177 199.388 19.5677 199.35 19.3157C199.313 19.0544 199.248 18.8257 199.154 18.6297C199.042 18.3124 198.856 18.0604 198.594 17.8737C198.342 17.6777 198.039 17.5797 197.684 17.5797C197.311 17.5797 196.989 17.673 196.718 17.8597C196.448 18.0464 196.252 18.2937 196.13 18.6017C196.018 18.807 195.934 19.0404 195.878 19.3017C195.832 19.5537 195.808 19.9084 195.808 20.3657C195.808 20.8044 195.827 21.1497 195.864 21.4017C195.902 21.6444 195.967 21.8637 196.06 22.0597C196.172 22.3957 196.368 22.6617 196.648 22.8577C196.938 23.0537 197.278 23.1517 197.67 23.1517C198.044 23.1517 198.356 23.0537 198.608 22.8577C198.86 22.6617 199.047 22.4004 199.168 22.0737ZM203.339 15.5357C203.115 15.5357 202.928 15.461 202.779 15.3117C202.63 15.1624 202.555 14.9757 202.555 14.7517C202.555 14.5184 202.63 14.3317 202.779 14.1917C202.928 14.0424 203.115 13.9677 203.339 13.9677C203.563 13.9677 203.75 14.0424 203.899 14.1917C204.048 14.3317 204.123 14.5184 204.123 14.7517C204.123 14.9757 204.048 15.1624 203.899 15.3117C203.75 15.461 203.563 15.5357 203.339 15.5357ZM202.947 23.8937C202.854 23.8937 202.807 23.847 202.807 23.7537V16.9497C202.807 16.8564 202.854 16.8097 202.947 16.8097H203.661C203.754 16.8097 203.801 16.8564 203.801 16.9497V23.7537C203.801 23.847 203.754 23.8937 203.661 23.8937H202.947ZM209.175 16.7257C209.922 16.7257 210.515 16.945 210.953 17.3837C211.401 17.8224 211.625 18.4104 211.625 19.1477V23.7677C211.625 23.861 211.579 23.9077 211.485 23.9077H210.771C210.678 23.9077 210.631 23.861 210.631 23.7677V19.3437C210.631 18.8304 210.473 18.4104 210.155 18.0837C209.847 17.757 209.446 17.5937 208.951 17.5937C208.438 17.5937 208.023 17.7524 207.705 18.0697C207.388 18.387 207.229 18.8024 207.229 19.3157V23.7677C207.229 23.861 207.183 23.9077 207.089 23.9077H206.375C206.282 23.9077 206.235 23.861 206.235 23.7677V16.9637C206.235 16.8704 206.282 16.8237 206.375 16.8237H207.089C207.183 16.8237 207.229 16.8704 207.229 16.9637V17.5657C207.229 17.5844 207.234 17.5984 207.243 17.6077C207.262 17.617 207.276 17.6124 207.285 17.5937C207.696 17.015 208.326 16.7257 209.175 16.7257ZM218.15 16.9637C218.15 16.8704 218.197 16.8237 218.29 16.8237H219.004C219.097 16.8237 219.144 16.8704 219.144 16.9637V23.6697C219.144 24.715 218.841 25.4804 218.234 25.9657C217.637 26.451 216.811 26.6937 215.756 26.6937C215.541 26.6937 215.378 26.689 215.266 26.6797C215.173 26.6704 215.126 26.619 215.126 26.5257L215.154 25.8817C215.154 25.835 215.168 25.7977 215.196 25.7697C215.224 25.751 215.257 25.7464 215.294 25.7557L215.672 25.7697C216.54 25.7697 217.17 25.597 217.562 25.2517C217.954 24.9157 218.15 24.379 218.15 23.6417V23.1237C218.15 23.105 218.141 23.0957 218.122 23.0957C218.113 23.0864 218.099 23.091 218.08 23.1097C217.651 23.6697 217.039 23.9497 216.246 23.9497C215.639 23.9497 215.098 23.7864 214.622 23.4597C214.155 23.133 213.843 22.671 213.684 22.0737C213.572 21.691 213.516 21.1217 213.516 20.3657C213.516 19.955 213.525 19.6097 213.544 19.3297C213.572 19.0497 213.623 18.7977 213.698 18.5737C213.866 18.0137 214.169 17.5657 214.608 17.2297C215.047 16.8844 215.574 16.7117 216.19 16.7117C217.021 16.7117 217.651 16.987 218.08 17.5377C218.099 17.5564 218.113 17.561 218.122 17.5517C218.141 17.5424 218.15 17.5284 218.15 17.5097V16.9637ZM218.08 21.7657C218.108 21.6257 218.127 21.453 218.136 21.2477C218.145 21.0424 218.15 20.7437 218.15 20.3517C218.15 19.8757 218.145 19.5584 218.136 19.3997C218.127 19.2317 218.103 19.0777 218.066 18.9377C217.991 18.5457 217.805 18.2237 217.506 17.9717C217.217 17.7104 216.848 17.5797 216.4 17.5797C215.961 17.5797 215.588 17.7057 215.28 17.9577C214.981 18.2097 214.771 18.5364 214.65 18.9377C214.557 19.2364 214.51 19.703 214.51 20.3377C214.51 21.019 214.557 21.4904 214.65 21.7517C214.743 22.1437 214.944 22.4704 215.252 22.7317C215.569 22.9837 215.952 23.1097 216.4 23.1097C216.857 23.1097 217.231 22.9837 217.52 22.7317C217.819 22.4797 218.005 22.1577 218.08 21.7657Z" fill="white"/>
<mask id="mask0_310_50" style="mask-type:alpha" maskUnits="userSpaceOnUse" x="0" y="0" width="86" height="75">
<path d="M80.4678 37.281L79 35.3202L73.5 27.4768L60.5 6.88793L31.5 0.024971L15 18.653L8 33.8496L7 35.3202L6.53801 38.3256L0 39.3702L5.02924 66.1806L27.6608 74.5371H51.8012L76.4444 68.2697L86 40.4147L80.4678 37.281Z" fill="#D9D9D9"/>
</mask>
<g mask="url(#mask0_310_50)">
<path fill-rule="evenodd" clip-rule="evenodd" d="M50.7178 21.696C51.8173 21.696 52.9201 21.696 54.0196 21.696C54.0196 19.9557 54.0196 18.212 54.0196 16.4716C52.9333 16.4583 51.8437 16.445 50.7541 16.4317C50.4866 17.0273 50.6352 20.8475 50.7178 21.696ZM78.4801 10.6283C73.2532 -0.359654 64.7343 -7.86684 51.6753 -10.9649C49.3012 -11.5273 46.6597 -11.6105 43.8795 -11.7402C42.5225 -11.6504 41.1654 -11.5605 39.8083 -11.4707C37.1007 -10.9749 34.446 -10.6355 32.1314 -9.727C30.1305 -8.94168 28.0007 -8.26616 26.2177 -7.2113C17.4545 -2.03014 11.9073 4.15265 8.01437 14.2654C7.20541 16.3651 6.85541 18.7145 6.40305 21.1536C5.41248 26.4612 6.40635 32.7705 7.67098 36.8668C11.204 48.3306 18.8512 56.3935 29.404 60.7827C31.5239 61.6645 33.7625 62.36 36.239 62.949C37.4805 63.2451 38.7022 63.2551 40.0394 63.4914C41.2578 63.7077 44.0281 63.9639 45.4545 63.7243C46.5409 63.6478 47.6305 63.5679 48.7201 63.4914C50.7343 63.122 52.6989 62.8924 54.5182 62.33C62.6013 59.831 68.997 55.5583 73.6428 49.5984C75.3301 47.4321 77.0801 45.1127 78.2522 42.4406C79.4937 39.6022 80.5008 36.6439 81.2471 33.2297C82.9872 25.24 81.1084 16.1555 78.4801 10.6283ZM46.3758 50.3738C44.2956 50.7332 41.8654 50.437 40.155 49.9079C37.7248 49.1558 35.7899 47.8148 33.1649 47.3523C30.9031 46.9529 28.6842 48.3206 26.1385 47.8947C24.2036 47.5686 22.6319 46.9596 20.8785 46.6168C20.0564 46.4571 19.013 46.5836 18.2304 46.6934C17.2134 46.8398 16.005 46.4571 15.2356 46.2275C15.2224 46.2009 15.2092 46.1743 15.196 46.151C15.5427 46.1377 15.8861 46.1244 16.2328 46.111C17.3191 45.9247 18.3988 45.7517 19.3828 45.532C19.7295 45.5054 20.0729 45.4788 20.4196 45.4555C22.0078 45.5587 23.1833 46.0478 24.4908 46.3839C25.3097 46.5936 26.155 46.5836 27.063 46.7333C27.4988 46.7067 27.9347 46.6801 28.3672 46.6568C30.1602 46.3639 32.6729 45.8249 34.4328 46.3074C36.9588 47.0029 38.7748 48.4071 41.2281 49.1725C43.3545 49.8347 46.0555 49.9179 48.5616 50.1774C48.0663 50.4869 47.0262 50.2606 46.3758 50.3738ZM12.2771 41.7052C12.2771 41.6919 12.2771 41.6786 12.2771 41.6653C12.4818 41.5222 12.888 41.6087 13.1587 41.5089C14.9616 41.5289 16.213 42.617 18.1116 42.3208C20.8984 41.8883 25.1413 41.0597 28.1724 41.662C28.1724 41.6753 28.1724 41.6886 28.1724 41.7019C26.8814 41.7917 25.587 41.8816 24.2927 41.9714C22.1927 42.3441 19.079 43.3591 16.6884 42.9398C15.0507 42.6536 13.8785 41.9615 12.2771 41.7052ZM59.1277 48.2041C56.8791 48.5935 55.0465 49.2058 52.7913 48.3206C50.2951 47.3389 48.2975 45.8581 45.4578 45.146C42.9451 44.5171 40.013 45.6618 37.5465 45.0296C35.8559 44.597 34.7828 43.5321 32.9767 43.2093C31.2432 42.8999 29.7771 43.6386 28.4828 43.9447C26.8286 44.3341 24.5403 44.2276 22.7606 44.0612C22.7474 44.0346 22.7342 44.008 22.721 43.9847C25.7191 43.9314 28.0503 43.2892 30.3253 42.5904C30.8503 42.4872 31.3753 42.3841 31.9003 42.2809C35.0965 42.2776 35.8956 43.3857 38.3522 43.9048C39.3229 44.1111 40.7692 43.9747 41.6541 43.8283C43.1003 43.592 44.8998 43.7085 46.1083 44.0213C47.6371 44.4173 49.1229 44.9896 50.3711 45.725C51.5597 46.4272 52.7946 47.2591 54.2112 47.6983C55.8423 48.2041 57.6748 47.4687 59.5107 47.7749C60.3131 47.908 61.3201 48.0344 62.0069 48.0843C61.7593 48.3073 59.7088 48.1043 59.1277 48.2041ZM77.8659 41.0464C77.3772 41.266 76.3503 41.1229 75.7164 41.1229C74.0654 41.1229 72.4145 41.1229 70.7635 41.1229C65.2098 41.1229 59.6527 41.1229 54.0989 41.1229C51.6555 41.1495 49.2088 41.1761 46.7654 41.1994C47.0593 41.276 47.3531 41.3558 47.647 41.4324C48.5847 41.8383 49.463 42.2277 50.6814 42.4373C53.2305 42.8766 55.6112 41.6021 58.2064 42.1278C61.3564 42.7668 63.4565 44.2908 66.3093 45.1061C68.7362 45.8016 72.0348 45.3823 74.8711 45.532C74.8711 45.5853 74.8711 45.6352 74.8711 45.6884C71.7211 46.4072 67.4352 46.2941 64.6187 45.4189C62.6178 44.7966 60.8182 43.8715 58.6654 43.3291C56.0536 42.6736 53.3758 43.8915 50.5626 43.3691C48.0729 42.9032 46.3692 41.5854 43.8432 41.1628C41.4625 41.1628 39.0819 41.1628 36.7012 41.1628C31.1078 41.1495 25.5144 41.1362 19.921 41.1229C18.1281 41.1229 16.3384 41.1229 14.5455 41.1229C13.0861 41.1096 11.6266 41.0963 10.1672 41.083C10.1144 40.9532 10.0648 40.8234 10.012 40.6969C10.012 40.6071 10.012 40.5173 10.012 40.4274C10.4842 40.4008 10.9597 40.3742 11.4318 40.3509C33.5875 40.3609 56.0041 40.3808 77.8626 40.3908C77.965 40.5971 77.922 40.8167 77.8659 41.0464ZM14.0833 36.8269C14.6578 36.6073 15.2356 36.3876 15.8101 36.168C16.6422 35.6788 17.4743 35.1864 18.3064 34.6972C18.8578 34.4576 19.505 34.4742 20.1125 34.2313C20.6375 34.2313 21.1625 34.2313 21.6875 34.2313C21.7139 34.2712 21.7403 34.3079 21.7635 34.3478C21.7767 35.1597 21.7899 35.9717 21.8031 36.787C21.255 37.0399 20.271 36.7969 19.6139 36.9034C17.5337 37.2329 16.1568 37.5756 14.1625 36.9434C14.1328 36.9034 14.1097 36.8668 14.0833 36.8269ZM55.4791 16.3951C57.1564 18.4316 58.8338 20.4715 60.5079 22.508C61.4159 23.6028 62.3272 24.7009 63.2352 25.799C63.2352 30.1716 63.2352 34.5441 63.2352 38.9167C60.9569 38.9433 58.6786 38.9699 56.4003 38.9932C56.1097 38.341 56.4069 37.2695 56.2847 36.4375C56.2847 34.6306 56.2847 32.827 56.2847 31.0201C56.2715 30.4145 56.2583 29.8089 56.2451 29.1999C56.0272 28.9237 54.8154 29.0834 54.363 29.0834C52.5569 29.0834 50.7541 29.0834 48.9479 29.0834C48.9347 32.3712 48.9215 35.6622 48.9083 38.9533C46.5805 38.9666 44.2493 38.9799 41.9182 38.9932C41.8125 38.7603 41.8951 38.3942 41.8423 38.0648C41.8291 36.1547 41.8158 34.2446 41.8026 32.3379C41.8026 30.2747 41.8026 28.2083 41.8026 26.1451C45.4116 21.7992 49.0206 17.45 52.6328 13.104C52.6593 13.104 52.6857 13.104 52.7088 13.104C53.7753 13.916 54.6536 15.3336 55.4791 16.3951ZM53.597 11.8262C54.1913 11.9826 56.3013 14.7313 56.7833 15.3469C58.114 16.9475 59.4447 18.5448 60.7753 20.1454C61.1715 20.6512 61.8385 21.1536 62.1588 21.6927C62.7135 22.6311 64.2126 24.5312 65.0381 25.1768C65.0381 25.2167 65.0381 25.2533 65.0381 25.2932C64.873 25.3065 64.7046 25.3199 64.5395 25.3332C63.0107 23.859 61.7098 22.0222 60.3923 20.3417C59.0715 18.6546 57.5395 17.1505 56.2847 15.3868C55.7465 14.6348 53.7258 12.6448 53.597 11.8262ZM55.172 32.6474C54.9409 32.6607 54.7097 32.674 54.4819 32.6873C54.3763 32.4643 54.3961 32.0218 54.406 31.6823C54.5612 31.6424 54.713 31.6058 54.8682 31.5659C54.9838 31.5659 55.0994 31.5659 55.2149 31.5659C55.3206 31.7888 55.3008 32.2314 55.2909 32.5708C55.248 32.5974 55.2083 32.6207 55.172 32.6474ZM55.2876 34.2346C55.0201 34.248 54.7494 34.2613 54.4819 34.2746C54.3663 34.035 54.363 33.3927 54.4819 33.1532C54.7395 33.1532 54.9937 33.1532 55.2513 33.1532C55.2612 33.5125 55.2744 33.8753 55.2876 34.2346ZM55.2876 30.9835C55.248 31.0101 55.2116 31.0368 55.172 31.0601C54.9541 31.0601 54.7362 31.0601 54.5182 31.0601C54.3003 30.9203 54.3729 30.6241 54.4027 30.3246C54.4423 30.2714 54.4786 30.2215 54.5182 30.1683C54.7494 30.1683 54.9805 30.1683 55.2083 30.1683C55.2975 30.3546 55.2975 30.6907 55.2876 30.9835ZM54.4786 34.7005C54.7229 34.7005 54.964 34.7005 55.2083 34.7005C55.3173 34.9301 55.2942 35.396 55.2843 35.7454C55.0168 35.7853 54.7461 35.8219 54.4786 35.8619C54.4522 35.8219 54.4258 35.7853 54.4027 35.7454C54.3895 35.4492 54.3762 35.1531 54.363 34.8569C54.4027 34.8037 54.4423 34.7504 54.4786 34.7005ZM54.4786 37.4092C54.373 37.1863 54.3928 36.7437 54.4027 36.4043C54.4654 36.3643 54.5314 36.3277 54.5942 36.2878C54.7989 36.2878 55.0036 36.2878 55.2083 36.2878C55.347 36.574 55.3074 36.95 55.2843 37.3327C55.106 37.4192 54.7725 37.4192 54.4786 37.4092ZM55.2876 38.8401C55.106 38.9266 54.7725 38.9266 54.4819 38.9167C54.3465 38.7004 54.3069 38.138 54.4423 37.8718C54.7097 37.8718 54.9805 37.8718 55.2479 37.8718C55.2612 38.1945 55.2744 38.5173 55.2876 38.8401ZM53.8281 32.6873C53.5343 32.7006 53.2404 32.7139 52.9465 32.7272C52.8376 32.5043 52.8244 31.8853 52.9069 31.6058C53.2272 31.6058 53.5475 31.6058 53.8678 31.6058C53.9734 31.8288 53.9536 32.2713 53.9437 32.6107C53.9041 32.634 53.8645 32.6607 53.8281 32.6873ZM53.9041 34.2346C53.5838 34.2613 53.2635 34.2879 52.9432 34.3112C52.8244 34.0649 52.8211 33.3961 52.9432 33.1498C53.2371 33.1631 53.531 33.1764 53.8248 33.1898C53.9734 33.3462 53.9173 33.9418 53.9041 34.2346ZM53.9437 31.0235C53.7159 31.1333 53.2536 31.11 52.9069 31.1C52.8211 30.917 52.8211 30.5809 52.831 30.288C52.8937 30.2481 52.9597 30.2115 53.0225 30.1716C53.3031 30.1849 53.5871 30.1982 53.8678 30.2115C53.8942 30.2514 53.9206 30.288 53.9437 30.328C53.9437 30.5576 53.9437 30.7905 53.9437 31.0235ZM52.9069 34.7371C53.214 34.7371 53.5211 34.7371 53.8281 34.7371C53.9371 34.9667 53.914 35.4326 53.9041 35.782C53.6829 35.8885 53.2437 35.8685 52.9069 35.8585C52.788 35.6189 52.7847 34.9767 52.9069 34.7371ZM52.9432 37.4458C52.8277 37.2062 52.8244 36.564 52.9432 36.3244C53.2635 36.3244 53.5838 36.3244 53.9041 36.3244C54.0097 36.5474 53.9899 36.9899 53.98 37.3294C53.7324 37.4525 53.3163 37.4591 52.9432 37.4458ZM53.98 38.8401C53.7951 38.9333 53.1413 38.9998 52.9432 38.9167C52.7649 38.7935 52.788 38.148 52.8673 37.9117C53.2272 37.925 53.5838 37.9383 53.9437 37.9516C53.9536 38.2478 53.9668 38.544 53.98 38.8401ZM51.3682 37.9516C51.6621 37.9516 51.956 37.9516 52.2498 37.9516C52.3456 38.1513 52.3357 38.5306 52.3258 38.8401C52.1211 38.9666 51.7645 38.9699 51.4045 38.9566C51.3088 38.7503 51.289 38.2112 51.3682 37.9516ZM51.4078 36.3244C51.6753 36.3244 51.9461 36.3244 52.2135 36.3244C52.2399 36.3643 52.2663 36.4009 52.2895 36.4409C52.3027 36.7504 52.3159 37.0598 52.3291 37.3693C52.1145 37.4858 51.7711 37.4991 51.4078 37.4858C51.289 37.2395 51.2857 36.5707 51.4078 36.3244ZM52.3291 35.7454C52.2895 35.772 52.2531 35.7986 52.2135 35.8219C51.9328 35.8352 51.6489 35.8486 51.3682 35.8619C51.2461 35.609 51.2824 34.99 51.4078 34.7404C51.6753 34.7538 51.9461 34.7671 52.2135 34.7804C52.3984 34.9035 52.3423 35.4326 52.3291 35.7454ZM51.4078 32.7239C51.2857 32.5209 51.2692 31.9352 51.3682 31.6025C51.6885 31.6158 52.0088 31.6291 52.3291 31.6424C52.3291 31.9785 52.3291 32.3146 52.3291 32.6474C52.1244 32.7472 51.7248 32.7372 51.4078 32.7239ZM52.3291 34.1947C52.1244 34.2945 51.5895 34.3112 51.3319 34.2346C51.3319 33.9119 51.3319 33.5891 51.3319 33.2663C51.3715 33.2264 51.4078 33.1898 51.4475 33.1498C51.705 33.1498 51.9593 33.1498 52.2168 33.1498C52.2432 33.1898 52.2696 33.2264 52.2928 33.2663C52.3027 33.5758 52.3159 33.8852 52.3291 34.1947ZM51.3682 31.1C51.2626 30.9236 51.2395 30.6874 51.2527 30.3646C51.2923 30.3113 51.3286 30.2614 51.3682 30.2082C51.6621 30.2082 51.956 30.2082 52.2498 30.2082C52.2762 30.2481 52.3027 30.2847 52.3258 30.3246C52.339 30.5443 52.3522 30.7639 52.3654 30.9835C52.1508 31.1166 51.7479 31.1133 51.3682 31.1ZM50.8333 34.2346C50.6451 34.3245 50.2885 34.3212 49.988 34.3112C49.8791 34.0816 49.9022 33.6157 49.9121 33.2663C49.9649 33.2264 50.0145 33.1898 50.0673 33.1498C50.2984 33.1631 50.5295 33.1764 50.7574 33.1898C50.863 33.4194 50.8432 33.8852 50.8333 34.2346ZM50.8333 35.782C50.6517 35.8685 50.3182 35.8685 50.0277 35.8585C50.0012 35.8186 49.9748 35.782 49.9517 35.7421C49.9385 35.4592 49.9253 35.173 49.9121 34.8902C49.9517 34.8503 49.988 34.8137 50.0277 34.7737C50.272 34.7737 50.513 34.7737 50.7574 34.7737C50.8663 35.0067 50.8861 35.5125 50.8333 35.782ZM50.7541 37.4092C50.5097 37.4225 50.2687 37.4358 50.0244 37.4492C49.9979 37.3959 49.9715 37.346 49.9484 37.2928C49.9352 37.0232 49.922 36.7504 49.9088 36.4808C49.9484 36.4276 49.9847 36.3777 50.0244 36.3244C50.2687 36.3244 50.5097 36.3244 50.7541 36.3244C50.7805 36.3777 50.8069 36.4276 50.83 36.4808C50.8432 36.7637 50.8564 37.0498 50.8696 37.3327C50.8333 37.356 50.7937 37.3826 50.7541 37.4092ZM50.8696 38.8401C50.6781 38.9599 50.3711 38.9699 50.0244 38.9566C49.9121 38.7769 49.8626 38.3842 49.9484 38.1047C50.0012 38.0415 50.0508 37.9749 50.1036 37.9117C50.3479 37.9017 50.6187 37.8984 50.7574 37.9882C50.7838 38.0149 50.8102 38.0415 50.8333 38.0648C50.8432 38.3243 50.8564 38.5806 50.8696 38.8401ZM50.0244 32.7239C49.8758 32.451 49.8758 31.8953 50.0244 31.6025C50.2918 31.6158 50.5626 31.6291 50.83 31.6424C50.8432 31.9652 50.8564 32.288 50.8696 32.6107C50.6781 32.7272 50.3711 32.7405 50.0244 32.7239ZM50.064 30.1716C50.2819 30.1849 50.4998 30.1982 50.7178 30.2115C50.7574 30.2248 50.7937 30.2381 50.8333 30.2514C50.8333 30.511 50.8333 30.7672 50.8333 31.0268C50.6451 31.1299 50.3942 31.1566 50.064 31.1432C50.0508 31.1432 50.0376 31.1432 50.0244 31.1432C49.8626 30.8804 49.8857 30.4045 50.064 30.1716ZM37.4673 23.0903C37.4541 23.077 37.4408 23.0637 37.4276 23.0504C37.4276 23.0371 37.4276 23.0238 37.4276 23.0105C38.2696 22.711 39.5772 23.1569 40.4621 22.8175C40.9871 22.8308 41.5121 22.8441 42.0371 22.8574C42.1526 22.9306 42.1031 22.864 42.1526 23.0138C42.113 23.117 42.0767 23.2201 42.0371 23.3233C41.2116 23.7991 38.3224 23.2168 37.4673 23.0903ZM36.5857 18.4083C37.4706 18.1721 38.4248 17.9924 39.4649 17.8293C40.221 17.7894 40.9739 17.7528 41.73 17.7128C43.1498 17.7395 44.5729 17.7661 45.9927 17.7894C46.0192 17.7894 46.0456 17.7894 46.0687 17.7894C46.0291 18.1088 45.8541 18.4449 45.6064 18.5647C44.7248 18.578 43.8399 18.5913 42.9583 18.6047C40.8352 18.5647 38.7088 18.5281 36.5824 18.4882C36.5857 18.4582 36.5857 18.4316 36.5857 18.4083ZM35.9715 16.7811C35.9715 16.7678 35.9715 16.7545 35.9715 16.7412C36.6319 16.0357 39.7324 16.0656 41.1158 16.0457C41.6904 16.0324 42.2682 16.0191 42.8427 16.0058C44.3781 16.0191 45.9135 16.0324 47.4522 16.0457C47.4786 16.0457 47.505 16.0457 47.5281 16.0457C47.5281 16.0856 47.5281 16.1222 47.5281 16.1621C47.3861 16.3685 47.2475 16.5748 47.1055 16.7811C46.8942 16.9242 44.7446 16.9575 44.3418 16.8976C41.5517 16.8576 38.7616 16.821 35.9715 16.7811ZM47.1847 13.104C47.1715 13.0774 47.1583 13.0508 47.1451 13.0275C47.7097 12.8644 48.1258 12.545 48.7201 12.2921C49.4036 12.2921 50.0607 12.3287 50.6022 12.4086C50.3611 13.926 48.3503 12.8545 47.1847 13.104ZM48.3734 14.2288C48.6045 14.2421 48.8357 14.2554 49.0635 14.2687C48.6607 15.5199 47.1484 15.1971 45.5701 15.1971C42.4201 15.1971 39.389 15.2936 36.239 15.2737C36.2257 15.2604 36.2125 15.247 36.1993 15.2337C36.1993 15.1805 36.1993 15.1306 36.1993 15.0773C36.2257 15.0773 36.2522 15.0773 36.2753 15.0773C36.8795 14.7013 38.0583 14.901 38.8475 14.7679C40.9541 14.4151 43.2192 14.6148 45.4512 14.2654C46.4286 14.2521 47.4027 14.2388 48.3734 14.2288ZM36.3941 12.2522C36.3182 12.5084 33.5116 15.8194 33.2838 15.9292C33.2705 15.9292 33.2573 15.9292 33.2441 15.9292C33.2441 13.9559 33.2441 11.9826 33.2441 10.0093C33.2838 9.96939 33.3201 9.93278 33.3597 9.89285C34.3338 9.89285 35.3045 9.89285 36.2786 9.89285C36.4734 10.2223 36.5493 11.7297 36.3941 12.2522ZM38.5833 19.3367C39.6201 19.3101 40.6569 19.2835 41.6937 19.2602C42.7569 19.2735 43.8201 19.2868 44.88 19.3001C44.5399 20.4948 42.7833 20.152 41.3074 20.152C37.771 20.152 34.1588 20.0655 30.8239 19.9956C30.8239 19.9823 30.8239 19.969 30.8239 19.9557C33.0724 19.3001 36.0706 19.7261 38.5833 19.3367ZM36.7772 21.0006C38.0055 20.9873 39.2338 20.9739 40.4621 20.9606C41.4989 20.9606 42.5357 20.9606 43.5725 20.9606C43.3545 21.2568 43.1366 21.553 42.9187 21.8491C38.0418 21.8491 33.1649 21.8491 28.288 21.8491C28.2748 21.8225 28.2616 21.7959 28.2484 21.7726C28.7304 21.5496 29.4073 21.5796 30.0149 21.4631C32.029 21.0771 34.5022 21.0704 36.7772 21.0006ZM40.6932 26.5711C40.9871 27.2333 40.7692 29.313 40.7692 30.2082C40.7692 33.0966 40.7692 35.9883 40.7692 38.8767C40.1055 39.1795 36.7375 38.9599 35.7767 38.9533C35.572 38.4974 35.7899 37.7154 35.7007 37.133C35.7007 35.6622 35.7007 34.1914 35.7007 32.7206C35.7007 31.9219 35.7007 31.12 35.7007 30.3213C35.9187 30.1017 36.1366 29.8821 36.3545 29.6624C36.8399 29.0535 37.4507 28.5211 37.814 27.8056C37.7875 27.7524 37.7611 27.7025 37.738 27.6492C36.9291 27.4429 35.6974 27.5327 34.7036 27.5327C32.6036 27.5461 30.5036 27.5594 28.4069 27.5727C27.5352 28.4745 26.6668 29.3796 25.7951 30.2814C25.7951 30.3346 25.7951 30.3845 25.7951 30.4378C25.871 30.5143 25.9503 30.5942 26.0262 30.6707C26.3069 30.684 26.5908 30.6973 26.8715 30.7107C26.8979 33.4327 26.9243 36.1547 26.9474 38.8767C26.2441 39.1995 23.8701 38.9632 22.9158 38.9533C22.8894 38.9133 22.863 38.8767 22.8399 38.8368C22.8399 34.787 22.8399 30.734 22.8399 26.6842C23.8436 26.2316 25.5078 26.9338 26.5644 26.5278C31.2729 26.5478 35.9847 26.5611 40.6932 26.5711ZM33.7823 32.4144C33.7691 32.4144 33.7559 32.4144 33.7427 32.4144C33.5809 32.1415 33.6139 31.5459 33.6272 31.1C33.6668 31.0601 33.7031 31.0235 33.7427 30.9835C33.9342 30.9835 34.1257 30.9835 34.3173 30.9835C34.4559 31.283 34.3668 31.8853 34.3569 32.3379C34.2215 32.4078 34.0201 32.4244 33.7823 32.4144ZM34.3569 34.1182C34.1522 34.1315 33.9474 34.1448 33.7427 34.1581C33.6139 33.8886 33.6106 33.0733 33.7427 32.8038C33.9342 32.8038 34.1257 32.8038 34.3173 32.8038C34.3338 33.243 34.347 33.6789 34.3569 34.1182ZM33.6272 34.7371C33.6668 34.6839 33.7031 34.634 33.7427 34.5807C33.921 34.5807 34.1026 34.5807 34.2809 34.5807C34.4262 34.8802 34.3701 35.4126 34.3206 35.7421C34.1158 35.7554 33.9111 35.7687 33.7064 35.782C33.5974 35.5524 33.6173 35.0865 33.6272 34.7371ZM33.7427 36.2479C33.8715 36.2213 34.0003 36.1946 34.1257 36.1713C34.1654 36.1847 34.2017 36.198 34.2413 36.2113C34.4427 36.351 34.3701 37.0365 34.3569 37.3726C34.2116 37.4425 33.9904 37.4591 33.7427 37.4492C33.7163 37.4092 33.6899 37.3726 33.6668 37.3327C33.6536 36.9966 33.6404 36.6605 33.6272 36.3277C33.6668 36.2978 33.7064 36.2745 33.7427 36.2479ZM33.6668 37.9516C33.8319 37.925 34.0003 37.8984 34.1654 37.8751C34.2182 37.8751 34.2677 37.8751 34.3206 37.8751C34.347 38.2112 34.3734 38.5473 34.3965 38.8801C34.3965 38.8934 34.3965 38.9067 34.3965 38.92C34.2446 38.9932 34.0003 39.0065 33.7427 38.9965C33.6338 38.7636 33.6569 38.2977 33.6668 37.9516ZM33.1682 34.0816C32.9932 34.1648 32.6828 34.1681 32.3989 34.1581C32.2668 33.8786 32.313 33.2863 32.3229 32.8803C32.3625 32.8404 32.3989 32.8038 32.4385 32.7638C32.6564 32.7638 32.8743 32.7638 33.0923 32.7638C33.2243 33.0533 33.1781 33.6656 33.1682 34.0816ZM33.1286 35.7055C32.9536 35.7887 32.6432 35.792 32.3592 35.782C32.3328 35.7421 32.3064 35.7055 32.2833 35.6655C32.2833 35.3428 32.2833 35.02 32.2833 34.6972C32.488 34.6573 32.6927 34.6207 32.8974 34.5807C32.9503 34.594 32.9998 34.6073 33.0526 34.6207C33.2606 34.7671 33.1781 35.4359 33.1286 35.7055ZM33.1682 32.3013C33.013 32.3811 32.63 32.4643 32.4385 32.3778C32.3989 32.3645 32.3625 32.3512 32.3229 32.3379C32.2536 31.9918 32.2272 31.2664 32.3625 30.9835C32.63 30.9968 32.9007 31.0101 33.1682 31.0235C33.1682 31.4494 33.1682 31.8753 33.1682 32.3013ZM32.3625 36.2079C32.6069 36.2079 32.8479 36.2079 33.0923 36.2079C33.2078 36.4542 33.1781 36.9633 33.1682 37.3294C32.9866 37.4159 32.6531 37.4159 32.3625 37.4059C32.2404 37.1597 32.2371 36.4575 32.3625 36.2079ZM32.3625 37.9117C32.63 37.9117 32.9007 37.9117 33.1682 37.9117C33.1814 38.2345 33.1946 38.5573 33.2078 38.8801C33.0196 38.9699 32.663 38.9666 32.3625 38.9566C32.247 38.727 32.247 38.1413 32.3625 37.9117ZM31.8606 32.3379C31.5932 32.4677 30.9196 32.4444 30.5927 32.3778C30.4606 32.0983 30.5069 31.506 30.5168 31.1C30.5564 31.0467 30.5927 30.9968 30.6323 30.9436C31.0286 30.9436 31.4248 30.9436 31.8243 30.9436C31.9828 31.2863 31.8739 31.872 31.8606 32.3379ZM31.8606 34.1182C31.6064 34.2047 31.0319 34.1681 30.6687 34.1947C30.6555 34.1947 30.6422 34.1947 30.629 34.1947C30.4904 33.8985 30.5432 33.2663 30.5531 32.8404C30.847 32.8137 31.1408 32.7871 31.4347 32.7638C31.5635 32.7638 31.6922 32.7638 31.8177 32.7638C31.9828 33.1032 31.8772 33.6956 31.8606 34.1182ZM30.596 34.5441C30.9922 34.5441 31.3885 34.5441 31.788 34.5441C31.9234 34.7804 31.8772 35.2662 31.8639 35.7055C31.5998 35.8319 30.9856 35.8219 30.6356 35.8219C30.6092 35.782 30.5828 35.7454 30.5597 35.7055C30.4441 35.4526 30.497 34.7438 30.596 34.5441ZM31.9003 37.3693C31.6427 37.4957 30.8734 37.5024 30.5564 37.4092C30.5432 37.0465 30.53 36.6871 30.5168 36.3244C30.5564 36.2712 30.5927 36.2213 30.6323 36.168C31.0286 36.168 31.4248 36.168 31.8243 36.168C31.9465 36.4342 31.9102 36.9833 31.9003 37.3693ZM30.596 37.9516C31.0187 37.9516 31.4413 37.9516 31.8639 37.9516C31.963 38.158 31.9498 38.5606 31.9399 38.8801C31.6361 39.0531 31.1309 39.0098 30.6356 38.9965C30.6092 38.9566 30.5828 38.92 30.5597 38.8801C30.4573 38.6571 30.5102 38.118 30.596 37.9516ZM30.0578 32.3379C29.9158 32.4111 29.5559 32.4643 29.3677 32.3778C29.1564 32.2247 29.1861 31.1865 29.2918 30.9835C29.5229 30.9835 29.754 30.9835 29.9819 30.9835C30.0083 31.0235 30.0347 31.0601 30.0578 31.1C30.0578 31.5126 30.0578 31.9253 30.0578 32.3379ZM29.9422 34.1947C29.7243 34.1814 29.5064 34.1681 29.2885 34.1548C29.2753 33.7022 29.2621 33.253 29.2488 32.8004C29.3017 32.7738 29.3512 32.7472 29.404 32.7239C29.5955 32.7372 29.7871 32.7505 29.9786 32.7638C30.0809 32.9635 30.1701 34.0849 29.9422 34.1947ZM29.2521 37.9882C29.5097 37.9882 29.7639 37.9882 30.0215 37.9882C30.1172 38.1879 30.1073 38.5672 30.0974 38.8767C30.0578 38.9033 30.0215 38.93 29.9819 38.9533C29.7507 38.9666 29.5196 38.9799 29.2918 38.9932C29.1894 38.7902 29.1729 38.2478 29.2521 37.9882ZM29.3281 36.1713C29.546 36.1713 29.7639 36.1713 29.9819 36.1713C30.0083 36.2113 30.0347 36.2479 30.0578 36.2878C30.071 36.6505 30.0842 37.0099 30.0974 37.3726C30.0446 37.3992 29.9951 37.4259 29.9422 37.4492C29.7111 37.4492 29.48 37.4492 29.2521 37.4492C29.196 37.153 29.1993 36.4375 29.3281 36.1713ZM30.0578 35.7454C29.8927 35.8253 29.6021 35.8319 29.3281 35.8219C29.1597 35.4659 29.2455 34.6606 29.3677 34.3511C30.2658 34.5974 30.1503 34.5874 30.0578 35.7454ZM28.2154 37.9516C28.3804 37.9516 28.5488 37.9516 28.7139 37.9516C28.813 38.158 28.7998 38.5606 28.7899 38.8801C28.7371 38.9067 28.6875 38.9333 28.6347 38.9566C28.5191 38.9699 28.4036 38.9832 28.288 38.9965C28.2616 38.9566 28.2352 38.92 28.2121 38.8801C28.2154 38.5706 28.2154 38.2611 28.2154 37.9516ZM28.1757 32.7638C28.2154 32.7106 28.2517 32.6607 28.2913 32.6074C28.4201 32.634 28.5488 32.6607 28.6743 32.684C28.7007 32.7106 28.7271 32.7372 28.7503 32.7605C28.7503 34.3345 28.7503 35.9085 28.7503 37.4824C28.6974 37.5091 28.6479 37.5357 28.5951 37.559C28.4795 37.5723 28.3639 37.5856 28.2484 37.5989C27.9611 36.9533 28.1691 33.7521 28.1757 32.7638ZM28.7503 32.3778C28.5885 32.4643 28.4597 32.4976 28.2517 32.4543C28.1097 32.1582 28.1097 31.1998 28.2517 30.907C28.4069 30.9203 28.5588 30.9336 28.7139 30.9469C28.8757 31.293 28.7701 31.9519 28.7503 32.3778ZM78.8631 37.1364C77.6711 37.8085 75.4126 37.0998 74.1414 36.9434C72.3683 36.7237 71.0211 37.4924 69.5319 37.7553C68.3168 37.9716 67.5904 37.3826 66.5767 37.3693C66.5767 37.356 66.5767 37.3427 66.5767 37.3294C67.0753 37.0964 67.5739 36.8635 68.0758 36.6339C69.073 36.0249 69.8225 35.0932 70.9551 34.6207C71.3975 34.4376 71.9588 34.5009 72.4541 34.3112C74.9867 34.3877 76.6343 36.4143 78.8301 36.98C78.8433 37.0199 78.8565 37.0565 78.8697 37.0964C78.8631 37.1131 78.8631 37.1231 78.8631 37.1364ZM80.2466 32.3379C79.9857 33.5458 79.9725 35.1431 79.4013 36.1314C79.0414 36.6139 76.5353 35.2995 76.1753 35.0865C72.9362 33.1731 71.239 33.243 68.264 35.396C67.1083 34.807 66.1343 34.1947 64.348 34.2346C64.1102 33.7621 64.272 32.5642 64.272 31.8354C64.2588 30.0285 64.2456 28.2249 64.2324 26.418C64.8366 26.1285 66.9862 26.2915 67.9569 26.3015C67.9834 26.2383 68.0098 26.1717 68.0329 26.1085C67.3164 24.7142 65.9494 23.6028 64.9984 22.3949C62.8225 19.776 60.6465 17.1571 58.4706 14.5383C57.4866 13.3636 56.4994 12.1889 55.5154 11.0176C55.1423 10.5384 54.7725 9.82629 54.2475 9.50684C48.6409 9.91947 43.0342 10.3321 37.4276 10.7447C37.0974 9.79967 37.6092 9.86623 37.7347 9.46691C37.6951 9.15744 37.6588 8.84797 37.6191 8.53849C37.4574 8.46528 32.4154 8.39873 32.1677 8.49856C31.6064 8.85129 32.2305 9.62997 32.2833 9.89285C32.2701 10.2556 32.2569 10.6149 32.2437 10.9777C32.204 11.0043 32.1677 11.0309 32.1281 11.0542C31.4743 11.1074 30.8238 11.1574 30.1701 11.2106C28.8889 12.7446 27.6111 14.282 26.33 15.8161C24.3257 18.3717 22.0969 20.7576 20.0696 23.3233C19.3035 24.2916 18.2238 25.1269 17.613 26.225C17.6262 26.2882 17.6394 26.3548 17.6526 26.418C18.7422 26.8073 20.6375 26.1118 21.7238 26.5345C21.9715 26.7308 21.8394 27.7424 21.8394 28.1583C21.8262 29.9386 21.813 31.7189 21.7998 33.4992C21.5785 33.7821 20.5219 33.4327 19.9936 33.5392C19.3168 33.6756 18.6201 33.8253 18.0356 34.0816C17.3884 34.3644 16.7776 35.0067 15.962 35.0499C13.6243 33.3927 11.0323 33.2663 8.16626 34.4709C7.63796 33.9784 7.56862 30.9935 7.39692 29.9819C6.60116 25.23 7.61484 19.4998 8.70777 15.8926C12.3564 3.83319 20.5583 -4.07664 31.8243 -8.48912C34.1753 -9.41088 36.8201 -9.79688 39.5805 -10.3093C40.9375 -10.3992 42.2946 -10.489 43.6517 -10.5789C61.9607 -10.5523 74.6895 1.23762 79.0942 15.4267C80.481 19.8958 81.4419 26.804 80.2466 32.3379Z" fill="white"/>
</g>
</svg>
