<svg width="582" height="164" viewBox="0 0 582 164" fill="none" xmlns="http://www.w3.org/2000/svg">
<g filter="url(#filter0_d_6_81)">
<path d="M509 156L512.5 145H534L509 156Z" fill="#B1400C"/>
<path d="M0 0L578 0L509 156H0V0Z" fill="#FB5B11"/>
</g>
<path d="M188.112 87.8C188.112 89.272 188.443 90.5627 189.104 91.672C189.787 92.76 190.672 93.6027 191.76 94.2C192.848 94.776 194.032 95.064 195.312 95.064C196.379 95.064 197.328 94.9253 198.16 94.648C198.992 94.3707 199.739 93.9973 200.4 93.528C201.083 93.0587 201.669 92.5467 202.16 91.992V97.144C201.243 97.8693 200.24 98.4347 199.152 98.84C198.085 99.2453 196.731 99.448 195.088 99.448C193.381 99.448 191.792 99.1707 190.32 98.616C188.869 98.0613 187.6 97.2613 186.512 96.216C185.445 95.1707 184.613 93.944 184.016 92.536C183.44 91.1067 183.152 89.528 183.152 87.8C183.152 86.072 183.44 84.504 184.016 83.096C184.613 81.6667 185.445 80.4293 186.512 79.384C187.6 78.3387 188.869 77.5387 190.32 76.984C191.792 76.4293 193.381 76.152 195.088 76.152C196.731 76.152 198.085 76.3547 199.152 76.76C200.24 77.1653 201.243 77.7307 202.16 78.456V83.608C201.669 83.0533 201.083 82.5413 200.4 82.072C199.739 81.6027 198.992 81.2293 198.16 80.952C197.328 80.6747 196.379 80.536 195.312 80.536C194.032 80.536 192.848 80.8347 191.76 81.432C190.672 82.008 189.787 82.84 189.104 83.928C188.443 85.016 188.112 86.3067 188.112 87.8ZM205.337 91.64C205.337 90.104 205.689 88.76 206.393 87.608C207.119 86.456 208.089 85.56 209.305 84.92C210.543 84.28 211.94 83.96 213.497 83.96C215.055 83.96 216.441 84.28 217.657 84.92C218.895 85.56 219.865 86.456 220.569 87.608C221.295 88.76 221.657 90.104 221.657 91.64C221.657 93.1547 221.295 94.4987 220.569 95.672C219.865 96.824 218.895 97.72 217.657 98.36C216.441 99 215.055 99.32 213.497 99.32C211.94 99.32 210.543 99 209.305 98.36C208.089 97.72 207.119 96.824 206.393 95.672C205.689 94.4987 205.337 93.1547 205.337 91.64ZM209.561 91.64C209.561 92.472 209.732 93.208 210.073 93.848C210.436 94.4667 210.916 94.9573 211.513 95.32C212.111 95.6613 212.772 95.832 213.497 95.832C214.223 95.832 214.884 95.6613 215.481 95.32C216.079 94.9573 216.548 94.4667 216.889 93.848C217.252 93.208 217.433 92.472 217.433 91.64C217.433 90.808 217.252 90.072 216.889 89.432C216.548 88.792 216.079 88.3013 215.481 87.96C214.884 87.6187 214.223 87.448 213.497 87.448C212.772 87.448 212.111 87.6187 211.513 87.96C210.916 88.3013 210.436 88.792 210.073 89.432C209.732 90.072 209.561 90.808 209.561 91.64ZM234.271 90.04C234.271 89.0587 234.079 88.312 233.695 87.8C233.311 87.288 232.692 87.032 231.839 87.032C231.263 87.032 230.751 87.16 230.303 87.416C229.855 87.6507 229.513 87.992 229.279 88.44C229.044 88.888 228.927 89.4213 228.927 90.04V99H224.767V84.28H228.927V86.52C229.375 85.688 229.961 85.0587 230.687 84.632C231.433 84.184 232.329 83.96 233.375 83.96C235.124 83.96 236.425 84.4613 237.279 85.464C238.132 86.4453 238.559 87.8213 238.559 89.592V99H234.271V90.04ZM246.706 74.04V99H242.546V74.04H246.706ZM258.802 91.64C258.802 93.2613 258.471 94.648 257.81 95.8C257.148 96.952 256.274 97.8267 255.186 98.424C254.119 99.0213 252.967 99.32 251.73 99.32C250.514 99.32 249.426 99.0107 248.466 98.392C247.527 97.7733 246.78 96.888 246.226 95.736C245.671 94.584 245.394 93.2187 245.394 91.64C245.394 90.04 245.671 88.6747 246.226 87.544C246.78 86.392 247.527 85.5067 248.466 84.888C249.426 84.2693 250.514 83.96 251.73 83.96C252.967 83.96 254.119 84.2587 255.186 84.856C256.274 85.4533 257.148 86.328 257.81 87.48C258.471 88.6107 258.802 89.9973 258.802 91.64ZM254.514 91.64C254.514 90.7653 254.332 90.008 253.97 89.368C253.607 88.728 253.116 88.2373 252.498 87.896C251.9 87.5547 251.239 87.384 250.514 87.384C249.895 87.384 249.287 87.5547 248.69 87.896C248.114 88.216 247.634 88.696 247.25 89.336C246.887 89.976 246.706 90.744 246.706 91.64C246.706 92.536 246.887 93.304 247.25 93.944C247.634 94.584 248.114 95.0747 248.69 95.416C249.287 95.736 249.895 95.896 250.514 95.896C251.239 95.896 251.9 95.7253 252.498 95.384C253.116 95.0427 253.607 94.552 253.97 93.912C254.332 93.272 254.514 92.5147 254.514 91.64ZM266.18 93.24C266.18 94.2 266.372 94.9467 266.756 95.48C267.14 95.992 267.758 96.248 268.612 96.248C269.209 96.248 269.721 96.1307 270.148 95.896C270.596 95.64 270.937 95.288 271.172 94.84C271.428 94.392 271.556 93.8587 271.556 93.24V84.28H275.684V99H271.556V96.76C271.086 97.592 270.489 98.232 269.764 98.68C269.038 99.1067 268.153 99.32 267.108 99.32C265.358 99.32 264.046 98.8187 263.172 97.816C262.318 96.8133 261.892 95.4373 261.892 93.688V84.28H266.18V93.24ZM279.575 78.584C279.575 77.9013 279.82 77.3467 280.311 76.92C280.801 76.472 281.388 76.248 282.071 76.248C282.753 76.248 283.329 76.472 283.799 76.92C284.289 77.3467 284.535 77.9013 284.535 78.584C284.535 79.2453 284.289 79.8 283.799 80.248C283.329 80.696 282.753 80.92 282.071 80.92C281.388 80.92 280.801 80.696 280.311 80.248C279.82 79.8 279.575 79.2453 279.575 78.584ZM280.023 84.28H284.055V99H280.023V84.28ZM288.454 74.04H292.614V99H288.454V74.04ZM307.808 74.04H311.968V99H307.808V74.04ZM295.712 91.64C295.712 89.9973 296.043 88.6107 296.704 87.48C297.366 86.328 298.24 85.4533 299.328 84.856C300.416 84.2587 301.568 83.96 302.784 83.96C304.022 83.96 305.11 84.2693 306.048 84.888C307.008 85.5067 307.755 86.392 308.288 87.544C308.843 88.6747 309.12 90.04 309.12 91.64C309.12 93.2187 308.843 94.584 308.288 95.736C307.755 96.888 307.008 97.7733 306.048 98.392C305.11 99.0107 304.022 99.32 302.784 99.32C301.568 99.32 300.416 99.0213 299.328 98.424C298.24 97.8267 297.366 96.952 296.704 95.8C296.043 94.648 295.712 93.2613 295.712 91.64ZM300 91.64C300 92.5147 300.182 93.272 300.544 93.912C300.907 94.552 301.398 95.0427 302.016 95.384C302.635 95.7253 303.296 95.896 304 95.896C304.619 95.896 305.216 95.736 305.792 95.416C306.39 95.0747 306.87 94.584 307.232 93.944C307.616 93.304 307.808 92.536 307.808 91.64C307.808 90.744 307.616 89.976 307.232 89.336C306.87 88.696 306.39 88.216 305.792 87.896C305.216 87.5547 304.619 87.384 304 87.384C303.296 87.384 302.635 87.5547 302.016 87.896C301.398 88.2373 300.907 88.728 300.544 89.368C300.182 90.008 300 90.7653 300 91.64Z" fill="white"/>
<path d="M186.298 64.126C185.645 64.126 185.071 64 184.576 63.748C184.081 63.4867 183.694 63.1227 183.414 62.656C183.143 62.18 183.008 61.634 183.008 61.018V57.168C183.008 56.5613 183.143 56.0247 183.414 55.558C183.694 55.0913 184.081 54.732 184.576 54.48C185.071 54.2187 185.645 54.088 186.298 54.088C186.951 54.088 187.525 54.214 188.02 54.466C188.515 54.718 188.897 55.0727 189.168 55.53C189.448 55.9873 189.588 56.5147 189.588 57.112C189.588 57.1587 189.574 57.196 189.546 57.224C189.518 57.252 189.485 57.266 189.448 57.266L188.734 57.308C188.641 57.308 188.594 57.266 188.594 57.182V57.14C188.594 56.4773 188.384 55.95 187.964 55.558C187.544 55.1567 186.989 54.956 186.298 54.956C185.607 54.956 185.052 55.1567 184.632 55.558C184.212 55.9593 184.002 56.4867 184.002 57.14V61.06C184.002 61.7133 184.212 62.2407 184.632 62.642C185.052 63.0433 185.607 63.244 186.298 63.244C186.989 63.244 187.544 63.048 187.964 62.656C188.384 62.2547 188.594 61.7227 188.594 61.06V61.032C188.594 60.948 188.641 60.906 188.734 60.906L189.448 60.948C189.541 60.948 189.588 60.99 189.588 61.074C189.588 61.6807 189.448 62.2173 189.168 62.684C188.897 63.1413 188.515 63.496 188.02 63.748C187.525 64 186.951 64.126 186.298 64.126ZM194.312 64.112C193.64 64.112 193.062 63.9393 192.576 63.594C192.091 63.2487 191.755 62.7727 191.568 62.166C191.438 61.7367 191.372 61.1627 191.372 60.444C191.372 59.7253 191.438 59.156 191.568 58.736C191.746 58.1387 192.077 57.6673 192.562 57.322C193.048 56.9767 193.636 56.804 194.326 56.804C194.989 56.804 195.558 56.9767 196.034 57.322C196.52 57.6673 196.851 58.134 197.028 58.722C197.159 59.1233 197.224 59.6973 197.224 60.444C197.224 61.2 197.159 61.774 197.028 62.166C196.851 62.7727 196.52 63.2487 196.034 63.594C195.558 63.9393 194.984 64.112 194.312 64.112ZM194.312 63.244C194.76 63.244 195.143 63.1227 195.46 62.88C195.778 62.628 195.992 62.292 196.104 61.872C196.188 61.536 196.23 61.0647 196.23 60.458C196.23 59.842 196.193 59.3707 196.118 59.044C196.006 58.624 195.787 58.2927 195.46 58.05C195.143 57.798 194.756 57.672 194.298 57.672C193.841 57.672 193.454 57.798 193.136 58.05C192.819 58.2927 192.604 58.624 192.492 59.044C192.418 59.3707 192.38 59.842 192.38 60.458C192.38 61.074 192.418 61.5453 192.492 61.872C192.595 62.292 192.805 62.628 193.122 62.88C193.449 63.1227 193.846 63.244 194.312 63.244ZM202.179 56.818C202.926 56.818 203.518 57.0373 203.957 57.476C204.405 57.9147 204.629 58.5027 204.629 59.24V63.86C204.629 63.9533 204.582 64 204.489 64H203.775C203.682 64 203.635 63.9533 203.635 63.86V59.436C203.635 58.9227 203.476 58.5027 203.159 58.176C202.851 57.8493 202.45 57.686 201.955 57.686C201.442 57.686 201.026 57.8447 200.709 58.162C200.392 58.4793 200.233 58.8947 200.233 59.408V63.86C200.233 63.9533 200.186 64 200.093 64H199.379C199.286 64 199.239 63.9533 199.239 63.86V57.056C199.239 56.9627 199.286 56.916 199.379 56.916H200.093C200.186 56.916 200.233 56.9627 200.233 57.056V57.658C200.233 57.6767 200.238 57.6907 200.247 57.7C200.266 57.7093 200.28 57.7047 200.289 57.686C200.7 57.1073 201.33 56.818 202.179 56.818ZM209.11 64.07C208.587 64.07 208.121 63.986 207.71 63.818C207.309 63.65 206.996 63.426 206.772 63.146C206.557 62.866 206.45 62.5533 206.45 62.208V62.04C206.45 61.9467 206.497 61.9 206.59 61.9H207.262C207.355 61.9 207.402 61.9467 207.402 62.04V62.152C207.402 62.46 207.561 62.7307 207.878 62.964C208.205 63.188 208.611 63.3 209.096 63.3C209.581 63.3 209.973 63.1927 210.272 62.978C210.571 62.754 210.72 62.474 210.72 62.138C210.72 61.9047 210.641 61.7133 210.482 61.564C210.333 61.4147 210.151 61.298 209.936 61.214C209.731 61.13 209.409 61.0227 208.97 60.892C208.447 60.7427 208.018 60.5933 207.682 60.444C207.346 60.2947 207.061 60.0893 206.828 59.828C206.604 59.5573 206.492 59.2167 206.492 58.806C206.492 58.2087 206.725 57.7327 207.192 57.378C207.659 57.0233 208.275 56.846 209.04 56.846C209.553 56.846 210.006 56.93 210.398 57.098C210.799 57.266 211.107 57.4993 211.322 57.798C211.537 58.0873 211.644 58.414 211.644 58.778V58.82C211.644 58.9133 211.597 58.96 211.504 58.96H210.846C210.753 58.96 210.706 58.9133 210.706 58.82V58.778C210.706 58.4607 210.552 58.1947 210.244 57.98C209.945 57.7653 209.539 57.658 209.026 57.658C208.55 57.658 208.167 57.756 207.878 57.952C207.589 58.1387 207.444 58.4 207.444 58.736C207.444 59.0533 207.584 59.296 207.864 59.464C208.144 59.632 208.578 59.8 209.166 59.968C209.707 60.1267 210.146 60.276 210.482 60.416C210.818 60.556 211.107 60.7613 211.35 61.032C211.593 61.2933 211.714 61.6387 211.714 62.068C211.714 62.6747 211.476 63.16 211 63.524C210.524 63.888 209.894 64.07 209.11 64.07ZM216.691 57.602C216.691 57.6953 216.644 57.742 216.551 57.742H214.969C214.931 57.742 214.913 57.7607 214.913 57.798V61.928C214.913 62.376 215.011 62.6933 215.207 62.88C215.412 63.0573 215.729 63.146 216.159 63.146H216.509C216.602 63.146 216.649 63.1927 216.649 63.286V63.86C216.649 63.9533 216.602 64 216.509 64C216.397 64.0093 216.224 64.014 215.991 64.014C215.319 64.014 214.81 63.888 214.465 63.636C214.119 63.384 213.947 62.9173 213.947 62.236V57.798C213.947 57.7607 213.928 57.742 213.891 57.742H213.037C212.943 57.742 212.897 57.6953 212.897 57.602V57.056C212.897 56.9627 212.943 56.916 213.037 56.916H213.891C213.928 56.916 213.947 56.8973 213.947 56.86V55.236C213.947 55.1427 213.993 55.096 214.087 55.096H214.773C214.866 55.096 214.913 55.1427 214.913 55.236V56.86C214.913 56.8973 214.931 56.916 214.969 56.916H216.551C216.644 56.916 216.691 56.9627 216.691 57.056V57.602ZM221.468 56.846C221.776 56.846 222.042 56.9067 222.266 57.028C222.341 57.0653 222.369 57.126 222.35 57.21L222.196 57.896C222.168 57.9893 222.108 58.0173 222.014 57.98C221.856 57.9147 221.674 57.882 221.468 57.882L221.286 57.896C220.801 57.9147 220.4 58.0967 220.082 58.442C219.765 58.778 219.606 59.2073 219.606 59.73V63.86C219.606 63.9533 219.56 64 219.466 64H218.752C218.659 64 218.612 63.9533 218.612 63.86V57.056C218.612 56.9627 218.659 56.916 218.752 56.916H219.466C219.56 56.916 219.606 56.9627 219.606 57.056V57.91C219.606 57.938 219.611 57.9567 219.62 57.966C219.639 57.966 219.653 57.9567 219.662 57.938C219.858 57.5927 220.106 57.3267 220.404 57.14C220.712 56.944 221.067 56.846 221.468 56.846ZM227.996 57.056C227.996 56.9627 228.042 56.916 228.136 56.916H228.85C228.943 56.916 228.99 56.9627 228.99 57.056V63.86C228.99 63.9533 228.943 64 228.85 64H228.136C228.042 64 227.996 63.9533 227.996 63.86V63.258C227.996 63.2393 227.986 63.2253 227.968 63.216C227.949 63.2067 227.935 63.2113 227.926 63.23C227.534 63.8087 226.913 64.098 226.064 64.098C225.616 64.098 225.2 64.0093 224.818 63.832C224.444 63.6453 224.146 63.3793 223.922 63.034C223.707 62.6887 223.6 62.2733 223.6 61.788V57.056C223.6 56.9627 223.646 56.916 223.74 56.916H224.454C224.547 56.916 224.594 56.9627 224.594 57.056V61.494C224.594 62.026 224.743 62.4507 225.042 62.768C225.34 63.076 225.746 63.23 226.26 63.23C226.792 63.23 227.212 63.0713 227.52 62.754C227.837 62.4367 227.996 62.0167 227.996 61.494V57.056ZM233.892 64.112C233.22 64.112 232.641 63.9393 232.156 63.594C231.68 63.2393 231.353 62.7633 231.176 62.166C231.054 61.7553 230.994 61.1767 230.994 60.43C230.994 59.758 231.054 59.1887 231.176 58.722C231.344 58.1433 231.67 57.6813 232.156 57.336C232.641 56.9813 233.22 56.804 233.892 56.804C234.573 56.804 235.161 56.9767 235.656 57.322C236.16 57.6673 236.486 58.0967 236.636 58.61C236.682 58.778 236.71 58.918 236.72 59.03V59.058C236.72 59.1233 236.678 59.1653 236.594 59.184L235.894 59.282H235.866C235.8 59.282 235.758 59.24 235.74 59.156L235.698 58.946C235.614 58.5913 235.408 58.2927 235.082 58.05C234.755 57.798 234.358 57.672 233.892 57.672C233.425 57.672 233.033 57.798 232.716 58.05C232.408 58.2927 232.207 58.6193 232.114 59.03C232.03 59.3847 231.988 59.856 231.988 60.444C231.988 61.06 232.03 61.536 232.114 61.872C232.207 62.292 232.408 62.628 232.716 62.88C233.033 63.1227 233.425 63.244 233.892 63.244C234.349 63.244 234.741 63.1273 235.068 62.894C235.404 62.6513 235.614 62.3433 235.698 61.97V61.914L235.712 61.858C235.721 61.7647 235.777 61.7273 235.88 61.746L236.566 61.858C236.659 61.8767 236.701 61.928 236.692 62.012L236.636 62.292C236.496 62.8333 236.174 63.272 235.67 63.608C235.166 63.944 234.573 64.112 233.892 64.112ZM241.669 57.602C241.669 57.6953 241.622 57.742 241.529 57.742H239.947C239.91 57.742 239.891 57.7607 239.891 57.798V61.928C239.891 62.376 239.989 62.6933 240.185 62.88C240.39 63.0573 240.708 63.146 241.137 63.146H241.487C241.58 63.146 241.627 63.1927 241.627 63.286V63.86C241.627 63.9533 241.58 64 241.487 64C241.375 64.0093 241.202 64.014 240.969 64.014C240.297 64.014 239.788 63.888 239.443 63.636C239.098 63.384 238.925 62.9173 238.925 62.236V57.798C238.925 57.7607 238.906 57.742 238.869 57.742H238.015C237.922 57.742 237.875 57.6953 237.875 57.602V57.056C237.875 56.9627 237.922 56.916 238.015 56.916H238.869C238.906 56.916 238.925 56.8973 238.925 56.86V55.236C238.925 55.1427 238.972 55.096 239.065 55.096H239.751C239.844 55.096 239.891 55.1427 239.891 55.236V56.86C239.891 56.8973 239.91 56.916 239.947 56.916H241.529C241.622 56.916 241.669 56.9627 241.669 57.056V57.602ZM244.263 55.628C244.039 55.628 243.852 55.5533 243.703 55.404C243.553 55.2547 243.479 55.068 243.479 54.844C243.479 54.6107 243.553 54.424 243.703 54.284C243.852 54.1347 244.039 54.06 244.263 54.06C244.487 54.06 244.673 54.1347 244.823 54.284C244.972 54.424 245.047 54.6107 245.047 54.844C245.047 55.068 244.972 55.2547 244.823 55.404C244.673 55.5533 244.487 55.628 244.263 55.628ZM243.871 63.986C243.777 63.986 243.731 63.9393 243.731 63.846V57.042C243.731 56.9487 243.777 56.902 243.871 56.902H244.585C244.678 56.902 244.725 56.9487 244.725 57.042V63.846C244.725 63.9393 244.678 63.986 244.585 63.986H243.871ZM249.861 64.112C249.189 64.112 248.61 63.9393 248.125 63.594C247.64 63.2487 247.304 62.7727 247.117 62.166C246.986 61.7367 246.921 61.1627 246.921 60.444C246.921 59.7253 246.986 59.156 247.117 58.736C247.294 58.1387 247.626 57.6673 248.111 57.322C248.596 56.9767 249.184 56.804 249.875 56.804C250.538 56.804 251.107 56.9767 251.583 57.322C252.068 57.6673 252.4 58.134 252.577 58.722C252.708 59.1233 252.773 59.6973 252.773 60.444C252.773 61.2 252.708 61.774 252.577 62.166C252.4 62.7727 252.068 63.2487 251.583 63.594C251.107 63.9393 250.533 64.112 249.861 64.112ZM249.861 63.244C250.309 63.244 250.692 63.1227 251.009 62.88C251.326 62.628 251.541 62.292 251.653 61.872C251.737 61.536 251.779 61.0647 251.779 60.458C251.779 59.842 251.742 59.3707 251.667 59.044C251.555 58.624 251.336 58.2927 251.009 58.05C250.692 57.798 250.304 57.672 249.847 57.672C249.39 57.672 249.002 57.798 248.685 58.05C248.368 58.2927 248.153 58.624 248.041 59.044C247.966 59.3707 247.929 59.842 247.929 60.458C247.929 61.074 247.966 61.5453 248.041 61.872C248.144 62.292 248.354 62.628 248.671 62.88C248.998 63.1227 249.394 63.244 249.861 63.244ZM257.728 56.818C258.475 56.818 259.067 57.0373 259.506 57.476C259.954 57.9147 260.178 58.5027 260.178 59.24V63.86C260.178 63.9533 260.131 64 260.038 64H259.324C259.231 64 259.184 63.9533 259.184 63.86V59.436C259.184 58.9227 259.025 58.5027 258.708 58.176C258.4 57.8493 257.999 57.686 257.504 57.686C256.991 57.686 256.575 57.8447 256.258 58.162C255.941 58.4793 255.782 58.8947 255.782 59.408V63.86C255.782 63.9533 255.735 64 255.642 64H254.928C254.835 64 254.788 63.9533 254.788 63.86V57.056C254.788 56.9627 254.835 56.916 254.928 56.916H255.642C255.735 56.916 255.782 56.9627 255.782 57.056V57.658C255.782 57.6767 255.787 57.6907 255.796 57.7C255.815 57.7093 255.829 57.7047 255.838 57.686C256.249 57.1073 256.879 56.818 257.728 56.818ZM270.248 58.89C270.201 58.918 270.201 58.946 270.248 58.974C270.752 59.1793 271.134 59.4827 271.396 59.884C271.657 60.2853 271.788 60.7707 271.788 61.34C271.788 62.18 271.517 62.8333 270.976 63.3C270.444 63.7667 269.739 64 268.862 64H265.474C265.38 64 265.334 63.9533 265.334 63.86V54.34C265.334 54.2467 265.38 54.2 265.474 54.2H268.764C269.669 54.2 270.378 54.424 270.892 54.872C271.414 55.32 271.676 55.95 271.676 56.762C271.676 57.2753 271.55 57.714 271.298 58.078C271.055 58.4327 270.705 58.7033 270.248 58.89ZM266.384 55.068C266.346 55.068 266.328 55.0867 266.328 55.124V58.484C266.328 58.5213 266.346 58.54 266.384 58.54H268.764C269.352 58.54 269.818 58.386 270.164 58.078C270.518 57.77 270.696 57.3593 270.696 56.846C270.696 56.3047 270.518 55.8753 270.164 55.558C269.818 55.2313 269.352 55.068 268.764 55.068H266.384ZM268.862 63.118C269.45 63.118 269.916 62.95 270.262 62.614C270.616 62.278 270.794 61.8253 270.794 61.256C270.794 60.6867 270.612 60.234 270.248 59.898C269.893 59.5527 269.412 59.38 268.806 59.38H266.384C266.346 59.38 266.328 59.3987 266.328 59.436V63.062C266.328 63.0993 266.346 63.118 266.384 63.118H268.862ZM278.008 57.056C278.008 56.9627 278.054 56.916 278.148 56.916H278.862C278.955 56.916 279.002 56.9627 279.002 57.056V63.86C279.002 63.9533 278.955 64 278.862 64H278.148C278.054 64 278.008 63.9533 278.008 63.86V63.258C278.008 63.2393 277.998 63.2253 277.98 63.216C277.961 63.2067 277.947 63.2113 277.938 63.23C277.546 63.8087 276.925 64.098 276.076 64.098C275.628 64.098 275.212 64.0093 274.83 63.832C274.456 63.6453 274.158 63.3793 273.934 63.034C273.719 62.6887 273.612 62.2733 273.612 61.788V57.056C273.612 56.9627 273.658 56.916 273.752 56.916H274.466C274.559 56.916 274.606 56.9627 274.606 57.056V61.494C274.606 62.026 274.755 62.4507 275.054 62.768C275.352 63.076 275.758 63.23 276.272 63.23C276.804 63.23 277.224 63.0713 277.532 62.754C277.849 62.4367 278.008 62.0167 278.008 61.494V57.056ZM281.901 55.628C281.677 55.628 281.491 55.5533 281.341 55.404C281.192 55.2547 281.117 55.068 281.117 54.844C281.117 54.6107 281.192 54.424 281.341 54.284C281.491 54.1347 281.677 54.06 281.901 54.06C282.125 54.06 282.312 54.1347 282.461 54.284C282.611 54.424 282.685 54.6107 282.685 54.844C282.685 55.068 282.611 55.2547 282.461 55.404C282.312 55.5533 282.125 55.628 281.901 55.628ZM281.509 63.986C281.416 63.986 281.369 63.9393 281.369 63.846V57.042C281.369 56.9487 281.416 56.902 281.509 56.902H282.223C282.317 56.902 282.363 56.9487 282.363 57.042V63.846C282.363 63.9393 282.317 63.986 282.223 63.986H281.509ZM284.938 64C284.844 64 284.798 63.9533 284.798 63.86V54.34C284.798 54.2467 284.844 54.2 284.938 54.2H285.652C285.745 54.2 285.792 54.2467 285.792 54.34V63.86C285.792 63.9533 285.745 64 285.652 64H284.938ZM292.42 54.34C292.42 54.2467 292.467 54.2 292.56 54.2H293.274C293.368 54.2 293.414 54.2467 293.414 54.34V63.86C293.414 63.9533 293.368 64 293.274 64H292.56C292.467 64 292.42 63.9533 292.42 63.86V63.272C292.42 63.2533 292.411 63.244 292.392 63.244C292.383 63.2347 292.369 63.2393 292.35 63.258C292.145 63.5287 291.888 63.7387 291.58 63.888C291.282 64.0373 290.946 64.112 290.572 64.112C289.919 64.112 289.368 63.944 288.92 63.608C288.482 63.272 288.178 62.8147 288.01 62.236C287.88 61.816 287.814 61.2233 287.814 60.458C287.814 59.6833 287.87 59.1047 287.982 58.722C288.15 58.1247 288.458 57.658 288.906 57.322C289.354 56.9767 289.91 56.804 290.572 56.804C290.936 56.804 291.272 56.8787 291.58 57.028C291.888 57.168 292.145 57.3733 292.35 57.644C292.369 57.6627 292.383 57.672 292.392 57.672C292.411 57.6627 292.42 57.6487 292.42 57.63V54.34ZM292.168 62.166C292.252 61.9793 292.313 61.76 292.35 61.508C292.388 61.256 292.406 60.906 292.406 60.458C292.406 60.01 292.388 59.66 292.35 59.408C292.313 59.1467 292.248 58.918 292.154 58.722C292.042 58.4047 291.856 58.1527 291.594 57.966C291.342 57.77 291.039 57.672 290.684 57.672C290.311 57.672 289.989 57.7653 289.718 57.952C289.448 58.1387 289.252 58.386 289.13 58.694C289.018 58.8993 288.934 59.1327 288.878 59.394C288.832 59.646 288.808 60.0007 288.808 60.458C288.808 60.8967 288.827 61.242 288.864 61.494C288.902 61.7367 288.967 61.956 289.06 62.152C289.172 62.488 289.368 62.754 289.648 62.95C289.938 63.146 290.278 63.244 290.67 63.244C291.044 63.244 291.356 63.146 291.608 62.95C291.86 62.754 292.047 62.4927 292.168 62.166ZM296.339 55.628C296.115 55.628 295.928 55.5533 295.779 55.404C295.63 55.2547 295.555 55.068 295.555 54.844C295.555 54.6107 295.63 54.424 295.779 54.284C295.928 54.1347 296.115 54.06 296.339 54.06C296.563 54.06 296.75 54.1347 296.899 54.284C297.048 54.424 297.123 54.6107 297.123 54.844C297.123 55.068 297.048 55.2547 296.899 55.404C296.75 55.5533 296.563 55.628 296.339 55.628ZM295.947 63.986C295.854 63.986 295.807 63.9393 295.807 63.846V57.042C295.807 56.9487 295.854 56.902 295.947 56.902H296.661C296.754 56.902 296.801 56.9487 296.801 57.042V63.846C296.801 63.9393 296.754 63.986 296.661 63.986H295.947ZM302.175 56.818C302.922 56.818 303.515 57.0373 303.953 57.476C304.401 57.9147 304.625 58.5027 304.625 59.24V63.86C304.625 63.9533 304.579 64 304.485 64H303.771C303.678 64 303.631 63.9533 303.631 63.86V59.436C303.631 58.9227 303.473 58.5027 303.155 58.176C302.847 57.8493 302.446 57.686 301.951 57.686C301.438 57.686 301.023 57.8447 300.705 58.162C300.388 58.4793 300.229 58.8947 300.229 59.408V63.86C300.229 63.9533 300.183 64 300.089 64H299.375C299.282 64 299.235 63.9533 299.235 63.86V57.056C299.235 56.9627 299.282 56.916 299.375 56.916H300.089C300.183 56.916 300.229 56.9627 300.229 57.056V57.658C300.229 57.6767 300.234 57.6907 300.243 57.7C300.262 57.7093 300.276 57.7047 300.285 57.686C300.696 57.1073 301.326 56.818 302.175 56.818ZM311.15 57.056C311.15 56.9627 311.197 56.916 311.29 56.916H312.004C312.097 56.916 312.144 56.9627 312.144 57.056V63.762C312.144 64.8073 311.841 65.5727 311.234 66.058C310.637 66.5433 309.811 66.786 308.756 66.786C308.541 66.786 308.378 66.7813 308.266 66.772C308.173 66.7627 308.126 66.7113 308.126 66.618L308.154 65.974C308.154 65.9273 308.168 65.89 308.196 65.862C308.224 65.8433 308.257 65.8387 308.294 65.848L308.672 65.862C309.54 65.862 310.17 65.6893 310.562 65.344C310.954 65.008 311.15 64.4713 311.15 63.734V63.216C311.15 63.1973 311.141 63.188 311.122 63.188C311.113 63.1787 311.099 63.1833 311.08 63.202C310.651 63.762 310.039 64.042 309.246 64.042C308.639 64.042 308.098 63.8787 307.622 63.552C307.155 63.2253 306.843 62.7633 306.684 62.166C306.572 61.7833 306.516 61.214 306.516 60.458C306.516 60.0473 306.525 59.702 306.544 59.422C306.572 59.142 306.623 58.89 306.698 58.666C306.866 58.106 307.169 57.658 307.608 57.322C308.047 56.9767 308.574 56.804 309.19 56.804C310.021 56.804 310.651 57.0793 311.08 57.63C311.099 57.6487 311.113 57.6533 311.122 57.644C311.141 57.6347 311.15 57.6207 311.15 57.602V57.056ZM311.08 61.858C311.108 61.718 311.127 61.5453 311.136 61.34C311.145 61.1347 311.15 60.836 311.15 60.444C311.15 59.968 311.145 59.6507 311.136 59.492C311.127 59.324 311.103 59.17 311.066 59.03C310.991 58.638 310.805 58.316 310.506 58.064C310.217 57.8027 309.848 57.672 309.4 57.672C308.961 57.672 308.588 57.798 308.28 58.05C307.981 58.302 307.771 58.6287 307.65 59.03C307.557 59.3287 307.51 59.7953 307.51 60.43C307.51 61.1113 307.557 61.5827 307.65 61.844C307.743 62.236 307.944 62.5627 308.252 62.824C308.569 63.076 308.952 63.202 309.4 63.202C309.857 63.202 310.231 63.076 310.52 62.824C310.819 62.572 311.005 62.25 311.08 61.858Z" fill="white"/>
<mask id="mask0_6_81" style="mask-type:alpha" maskUnits="userSpaceOnUse" x="93" y="40" width="86" height="76">
<path d="M173.468 78L172 76L166.5 68L153.5 47L124.5 40L108 59L101 74.5L100 76L99.538 79.0654L93 80.1308L98.0292 107.477L120.661 116H144.801L169.444 109.607L179 81.1963L173.468 78Z" fill="#D9D9D9"/>
</mask>
<g mask="url(#mask0_6_81)">
<path fill-rule="evenodd" clip-rule="evenodd" d="M143.718 62.1039C144.817 62.1039 145.92 62.1039 147.02 62.1039C147.02 60.3288 147.02 58.5503 147.02 56.7752C145.933 56.7616 144.844 56.748 143.754 56.7345C143.487 57.342 143.635 61.2384 143.718 62.1039ZM171.48 50.8152C166.253 39.6078 157.734 31.9507 144.675 28.7908C142.301 28.2172 139.66 28.1324 136.88 28C135.522 28.0916 134.165 28.1833 132.808 28.2749C130.101 28.7806 127.446 29.1268 125.131 30.0534C123.13 30.8544 121.001 31.5434 119.218 32.6194C110.454 37.904 104.907 44.2102 101.014 54.5249C100.205 56.6666 99.8554 59.0628 99.403 61.5507C98.4125 66.9643 99.4064 73.3995 100.671 77.5776C104.204 89.2703 111.851 97.4942 122.404 101.971C124.524 102.87 126.763 103.58 129.239 104.181C130.48 104.483 131.702 104.493 133.039 104.734C134.258 104.954 137.028 105.216 138.455 104.971C139.541 104.893 140.63 104.812 141.72 104.734C143.734 104.357 145.699 104.123 147.518 103.549C155.601 101 161.997 96.6423 166.643 90.5635C168.33 88.3539 170.08 85.9882 171.252 83.2628C172.494 80.3676 173.501 77.3502 174.247 73.8679C175.987 65.7187 174.108 56.4528 171.48 50.8152ZM139.376 91.3543C137.296 91.7209 134.865 91.4188 133.155 90.8791C130.725 90.1121 128.79 88.7442 126.165 88.2725C123.903 87.8652 121.684 89.2601 119.138 88.8257C117.204 88.4931 115.632 87.872 113.879 87.5224C113.056 87.3594 112.013 87.4884 111.23 87.6004C110.213 87.7498 109.005 87.3594 108.236 87.1252C108.222 87.0981 108.209 87.0709 108.196 87.0472C108.543 87.0336 108.886 87.02 109.233 87.0065C110.319 86.8164 111.399 86.6399 112.383 86.4159C112.729 86.3887 113.073 86.3616 113.42 86.3378C115.008 86.443 116.183 86.942 117.491 87.2848C118.31 87.4986 119.155 87.4884 120.063 87.6412C120.499 87.614 120.935 87.5868 121.367 87.5631C123.16 87.2644 125.673 86.7146 127.433 87.2067C129.959 87.9161 131.775 89.3484 134.228 90.129C136.355 90.8045 139.055 90.8893 141.562 91.154C141.066 91.4697 140.026 91.2389 139.376 91.3543ZM105.277 82.5127C105.277 82.4991 105.277 82.4855 105.277 82.4719C105.482 82.326 105.888 82.4142 106.159 82.3124C107.962 82.3328 109.213 83.4426 111.112 83.1406C113.898 82.6993 118.141 81.8542 121.172 82.4685C121.172 82.4821 121.172 82.4957 121.172 82.5093C119.881 82.6009 118.587 82.6926 117.293 82.7842C115.193 83.1643 112.079 84.1995 109.688 83.7719C108.051 83.48 106.879 82.774 105.277 82.5127ZM152.128 89.1413C149.879 89.5385 148.047 90.163 145.791 89.2601C143.295 88.2589 141.297 86.7485 138.458 86.0222C135.945 85.3807 133.013 86.5483 130.547 85.9034C128.856 85.4621 127.783 84.376 125.977 84.0468C124.243 83.7312 122.777 84.4846 121.483 84.7969C119.829 85.194 117.54 85.0854 115.761 84.9157C115.747 84.8885 115.734 84.8614 115.721 84.8376C118.719 84.7833 121.05 84.1283 123.325 83.4155C123.85 83.3103 124.375 83.2051 124.9 83.0998C128.097 83.0964 128.896 84.2267 131.352 84.7562C132.323 84.9666 133.769 84.8274 134.654 84.6781C136.1 84.4371 137.9 84.5559 139.108 84.875C140.637 85.2789 142.123 85.8626 143.371 86.6127C144.56 87.3289 145.795 88.1774 147.211 88.6254C148.842 89.1413 150.675 88.3913 152.511 88.7035C153.313 88.8393 154.32 88.9682 155.007 89.0192C154.759 89.2466 152.709 89.0395 152.128 89.1413ZM170.866 81.8406C170.377 82.0646 169.35 81.9187 168.716 81.9187C167.065 81.9187 165.414 81.9187 163.764 81.9187C158.21 81.9187 152.653 81.9187 147.099 81.9187C144.655 81.9459 142.209 81.973 139.765 81.9968C140.059 82.0748 140.353 82.1563 140.647 82.2343C141.585 82.6484 142.463 83.0455 143.681 83.2594C146.23 83.7074 148.611 82.4075 151.206 82.9437C154.356 83.5954 156.456 85.1499 159.309 85.9814C161.736 86.6908 165.035 86.2631 167.871 86.4159C167.871 86.4702 167.871 86.5211 167.871 86.5754C164.721 87.3085 160.435 87.1931 157.619 86.3005C155.618 85.6658 153.818 84.7222 151.665 84.169C149.054 83.5004 146.376 84.7426 143.563 84.2097C141.073 83.7345 139.369 82.3905 136.843 81.9594C134.463 81.9594 132.082 81.9594 129.701 81.9594C124.108 81.9459 118.514 81.9323 112.921 81.9187C111.128 81.9187 109.338 81.9187 107.546 81.9187C106.086 81.9051 104.627 81.8915 103.167 81.878C103.114 81.7456 103.065 81.6132 103.012 81.4843C103.012 81.3926 103.012 81.301 103.012 81.2093C103.484 81.1822 103.96 81.155 104.432 81.1313C126.588 81.1414 149.004 81.1618 170.863 81.172C170.965 81.3824 170.922 81.6064 170.866 81.8406ZM107.083 77.5369C107.658 77.3129 108.236 77.0889 108.81 76.8649C109.642 76.3659 110.474 75.8636 111.306 75.3647C111.858 75.1203 112.505 75.1373 113.113 74.8895C113.638 74.8895 114.163 74.8895 114.688 74.8895C114.714 74.9302 114.74 74.9676 114.763 75.0083C114.777 75.8365 114.79 76.6646 114.803 77.4962C114.255 77.7541 113.271 77.5064 112.614 77.615C110.534 77.951 109.157 78.3006 107.162 77.6557C107.133 77.615 107.11 77.5776 107.083 77.5369ZM148.479 56.6971C150.156 58.7743 151.834 60.8549 153.508 62.9321C154.416 64.0488 155.327 65.1688 156.235 66.2889C156.235 70.7487 156.235 75.2086 156.235 79.6684C153.957 79.6956 151.679 79.7227 149.4 79.7465C149.11 79.0812 149.407 77.9883 149.285 77.1398C149.285 75.2968 149.285 73.4572 149.285 71.6142C149.272 70.9965 149.258 70.3787 149.245 69.7576C149.027 69.4759 147.815 69.6388 147.363 69.6388C145.557 69.6388 143.754 69.6388 141.948 69.6388C141.935 72.9922 141.922 76.349 141.908 79.7057C139.58 79.7193 137.249 79.7329 134.918 79.7465C134.813 79.5089 134.895 79.1355 134.842 78.7995C134.829 76.8513 134.816 74.9031 134.803 72.9583C134.803 70.8539 134.803 68.7462 134.803 66.6418C138.412 62.2091 142.021 57.7731 145.633 53.3404C145.659 53.3404 145.686 53.3404 145.709 53.3404C146.775 54.1685 147.654 55.6144 148.479 56.6971ZM146.597 52.037C147.191 52.1966 149.301 55.0001 149.783 55.628C151.114 57.2605 152.445 58.8897 153.775 60.5223C154.172 61.0382 154.839 61.5507 155.159 62.1005C155.714 63.0577 157.213 64.9957 158.038 65.6542C158.038 65.6949 158.038 65.7322 158.038 65.773C157.873 65.7865 157.705 65.8001 157.539 65.8137C156.011 64.3101 154.71 62.4366 153.392 60.7225C152.072 59.0017 150.539 57.4676 149.285 55.6687C148.747 54.9016 146.726 52.872 146.597 52.037ZM148.172 73.2739C147.941 73.2875 147.71 73.3011 147.482 73.3146C147.376 73.0872 147.396 72.6358 147.406 72.2896C147.561 72.2489 147.713 72.2116 147.868 72.1708C147.984 72.1708 148.099 72.1708 148.215 72.1708C148.321 72.3982 148.301 72.8497 148.291 73.1959C148.248 73.223 148.208 73.2468 148.172 73.2739ZM148.288 74.8929C148.02 74.9065 147.749 74.9201 147.482 74.9336C147.366 74.6893 147.363 74.0342 147.482 73.7898C147.739 73.7898 147.994 73.7898 148.251 73.7898C148.261 74.1564 148.274 74.5263 148.288 74.8929ZM148.288 71.5769C148.248 71.604 148.212 71.6312 148.172 71.6549C147.954 71.6549 147.736 71.6549 147.518 71.6549C147.3 71.5124 147.373 71.2103 147.403 70.9048C147.442 70.8505 147.479 70.7996 147.518 70.7453C147.749 70.7453 147.98 70.7453 148.208 70.7453C148.297 70.9354 148.297 71.2782 148.288 71.5769ZM147.479 75.3681C147.723 75.3681 147.964 75.3681 148.208 75.3681C148.317 75.6023 148.294 76.0774 148.284 76.4338C148.017 76.4746 147.746 76.5119 147.479 76.5526C147.452 76.5119 147.426 76.4746 147.403 76.4338C147.389 76.1318 147.376 75.8297 147.363 75.5276C147.403 75.4733 147.442 75.419 147.479 75.3681ZM147.479 78.1309C147.373 77.9035 147.393 77.4521 147.403 77.1059C147.465 77.0651 147.531 77.0278 147.594 76.9871C147.799 76.9871 148.004 76.9871 148.208 76.9871C148.347 77.279 148.307 77.6625 148.284 78.0528C148.106 78.1411 147.772 78.1411 147.479 78.1309ZM148.288 79.5903C148.106 79.6786 147.772 79.6786 147.482 79.6684C147.347 79.4478 147.307 78.8742 147.442 78.6027C147.71 78.6027 147.98 78.6027 148.248 78.6027C148.261 78.9319 148.274 79.2611 148.288 79.5903ZM146.828 73.3146C146.534 73.3282 146.24 73.3418 145.947 73.3554C145.838 73.128 145.824 72.4967 145.907 72.2116C146.227 72.2116 146.547 72.2116 146.868 72.2116C146.973 72.439 146.954 72.8904 146.944 73.2366C146.904 73.2603 146.864 73.2875 146.828 73.3146ZM146.904 74.8929C146.584 74.9201 146.264 74.9472 145.943 74.971C145.824 74.7198 145.821 74.0376 145.943 73.7864C146.237 73.8 146.531 73.8136 146.825 73.8272C146.973 73.9867 146.917 74.5942 146.904 74.8929ZM146.944 71.6176C146.716 71.7296 146.254 71.7058 145.907 71.6957C145.821 71.509 145.821 71.1662 145.831 70.8675C145.894 70.8268 145.96 70.7894 146.022 70.7487C146.303 70.7623 146.587 70.7759 146.868 70.7894C146.894 70.8302 146.921 70.8675 146.944 70.9082C146.944 71.1424 146.944 71.38 146.944 71.6176ZM145.907 75.4054C146.214 75.4054 146.521 75.4054 146.828 75.4054C146.937 75.6396 146.914 76.1148 146.904 76.4712C146.683 76.5798 146.244 76.5594 145.907 76.5492C145.788 76.3048 145.785 75.6498 145.907 75.4054ZM145.943 78.1682C145.828 77.9238 145.824 77.2688 145.943 77.0244C146.264 77.0244 146.584 77.0244 146.904 77.0244C147.01 77.2518 146.99 77.7032 146.98 78.0494C146.732 78.175 146.316 78.1818 145.943 78.1682ZM146.98 79.5903C146.795 79.6854 146.141 79.7533 145.943 79.6684C145.765 79.5428 145.788 78.8844 145.867 78.6434C146.227 78.657 146.584 78.6705 146.944 78.6841C146.954 78.9862 146.967 79.2883 146.98 79.5903ZM144.368 78.6841C144.662 78.6841 144.956 78.6841 145.25 78.6841C145.346 78.8878 145.336 79.2747 145.326 79.5903C145.121 79.7193 144.764 79.7227 144.405 79.7091C144.309 79.4987 144.289 78.9489 144.368 78.6841ZM144.408 77.0244C144.675 77.0244 144.946 77.0244 145.214 77.0244C145.24 77.0651 145.266 77.1025 145.289 77.1432C145.303 77.4588 145.316 77.7745 145.329 78.0902C145.114 78.2089 144.771 78.2225 144.408 78.2089C144.289 77.9578 144.286 77.2756 144.408 77.0244ZM145.329 76.4338C145.289 76.461 145.253 76.4881 145.214 76.5119C144.933 76.5255 144.649 76.539 144.368 76.5526C144.246 76.2947 144.282 75.6634 144.408 75.4088C144.675 75.4224 144.946 75.436 145.214 75.4495C145.398 75.5751 145.342 76.1148 145.329 76.4338ZM144.408 73.352C144.286 73.1449 144.269 72.5476 144.368 72.2082C144.689 72.2217 145.009 72.2353 145.329 72.2489C145.329 72.5917 145.329 72.9345 145.329 73.2739C145.124 73.3757 144.725 73.3656 144.408 73.352ZM145.329 74.8522C145.124 74.954 144.589 74.971 144.332 74.8929C144.332 74.5637 144.332 74.2345 144.332 73.9052C144.372 73.8645 144.408 73.8272 144.447 73.7864C144.705 73.7864 144.959 73.7864 145.217 73.7864C145.243 73.8272 145.27 73.8645 145.293 73.9052C145.303 74.2209 145.316 74.5365 145.329 74.8522ZM144.368 71.6957C144.263 71.5158 144.239 71.2748 144.253 70.9456C144.292 70.8913 144.329 70.8404 144.368 70.786C144.662 70.786 144.956 70.786 145.25 70.786C145.276 70.8268 145.303 70.8641 145.326 70.9048C145.339 71.1288 145.352 71.3529 145.365 71.5769C145.151 71.7126 144.748 71.7092 144.368 71.6957ZM143.833 74.8929C143.645 74.9846 143.289 74.9812 142.988 74.971C142.879 74.7368 142.902 74.2616 142.912 73.9052C142.965 73.8645 143.014 73.8272 143.067 73.7864C143.298 73.8 143.53 73.8136 143.757 73.8272C143.863 74.0614 143.843 74.5365 143.833 74.8929ZM143.833 76.4712C143.652 76.5594 143.318 76.5594 143.028 76.5492C143.001 76.5085 142.975 76.4712 142.952 76.4304C142.939 76.1419 142.925 75.85 142.912 75.5615C142.952 75.5208 142.988 75.4835 143.028 75.4428C143.272 75.4428 143.513 75.4428 143.757 75.4428C143.866 75.6803 143.886 76.1962 143.833 76.4712ZM143.754 78.1309C143.51 78.1445 143.269 78.158 143.024 78.1716C142.998 78.1173 142.972 78.0664 142.948 78.0121C142.935 77.7372 142.922 77.4588 142.909 77.1839C142.948 77.1296 142.985 77.0787 143.024 77.0244C143.269 77.0244 143.51 77.0244 143.754 77.0244C143.78 77.0787 143.807 77.1296 143.83 77.1839C143.843 77.4724 143.856 77.7643 143.87 78.0528C143.833 78.0766 143.794 78.1037 143.754 78.1309ZM143.87 79.5903C143.678 79.7125 143.371 79.7227 143.024 79.7091C142.912 79.5259 142.863 79.1253 142.948 78.8402C143.001 78.7758 143.051 78.7079 143.104 78.6434C143.348 78.6332 143.619 78.6298 143.757 78.7215C143.784 78.7486 143.81 78.7758 143.833 78.7995C143.843 79.0643 143.856 79.3256 143.87 79.5903ZM143.024 73.352C142.876 73.0737 142.876 72.5069 143.024 72.2082C143.292 72.2217 143.563 72.2353 143.83 72.2489C143.843 72.5781 143.856 72.9074 143.87 73.2366C143.678 73.3554 143.371 73.369 143.024 73.352ZM143.064 70.7487C143.282 70.7623 143.5 70.7759 143.718 70.7894C143.757 70.803 143.794 70.8166 143.833 70.8302C143.833 71.0949 143.833 71.3563 143.833 71.621C143.645 71.7262 143.394 71.7534 143.064 71.7398C143.051 71.7398 143.038 71.7398 143.024 71.7398C142.863 71.4716 142.886 70.9863 143.064 70.7487ZM130.467 63.5261C130.454 63.5125 130.441 63.4989 130.428 63.4853C130.428 63.4718 130.428 63.4582 130.428 63.4446C131.27 63.1391 132.577 63.5939 133.462 63.2477C133.987 63.2613 134.512 63.2749 135.037 63.2885C135.153 63.3631 135.103 63.2953 135.153 63.448C135.113 63.5532 135.077 63.6584 135.037 63.7636C134.212 64.249 131.322 63.655 130.467 63.5261ZM129.586 58.7506C130.471 58.5096 131.425 58.3263 132.465 58.16C133.221 58.1193 133.974 58.0819 134.73 58.0412C136.15 58.0683 137.573 58.0955 138.993 58.1193C139.019 58.1193 139.046 58.1193 139.069 58.1193C139.029 58.4451 138.854 58.7879 138.606 58.9101C137.725 58.9237 136.84 58.9372 135.958 58.9508C133.835 58.9101 131.709 58.8727 129.582 58.832C129.586 58.8015 129.586 58.7743 129.586 58.7506ZM128.972 57.0908C128.972 57.0773 128.972 57.0637 128.972 57.0501C129.632 56.3306 132.732 56.3611 134.116 56.3407C134.69 56.3272 135.268 56.3136 135.843 56.3C137.378 56.3136 138.914 56.3272 140.452 56.3407C140.479 56.3407 140.505 56.3407 140.528 56.3407C140.528 56.3815 140.528 56.4188 140.528 56.4595C140.386 56.67 140.247 56.8804 140.105 57.0908C139.894 57.2368 137.745 57.2707 137.342 57.2096C134.552 57.1689 131.762 57.1316 128.972 57.0908ZM140.185 53.3404C140.172 53.3132 140.158 53.2861 140.145 53.2623C140.71 53.096 141.126 52.7702 141.72 52.5122C142.404 52.5122 143.061 52.5495 143.602 52.631C143.361 54.1787 141.35 53.0858 140.185 53.3404ZM141.373 54.4876C141.605 54.5011 141.836 54.5147 142.064 54.5283C141.661 55.8045 140.148 55.4753 138.57 55.4753C135.42 55.4753 132.389 55.5737 129.239 55.5533C129.226 55.5397 129.213 55.5262 129.199 55.5126C129.199 55.4583 129.199 55.4074 129.199 55.3531C129.226 55.3531 129.252 55.3531 129.275 55.3531C129.88 54.9695 131.058 55.1732 131.847 55.0374C133.954 54.6776 136.219 54.8813 138.451 54.5249C139.429 54.5113 140.403 54.4978 141.373 54.4876ZM129.394 52.4715C129.318 52.7328 126.512 56.1099 126.284 56.222C126.271 56.222 126.257 56.222 126.244 56.222C126.244 54.2093 126.244 52.1966 126.244 50.1838C126.284 50.1431 126.32 50.1058 126.36 50.0651C127.334 50.0651 128.305 50.0651 129.279 50.0651C129.473 50.4011 129.549 51.9386 129.394 52.4715ZM131.583 59.6975C132.62 59.6704 133.657 59.6432 134.694 59.6195C135.757 59.633 136.82 59.6466 137.88 59.6602C137.54 60.8787 135.783 60.5291 134.307 60.5291C130.771 60.5291 127.159 60.4408 123.824 60.3695C123.824 60.356 123.824 60.3424 123.824 60.3288C126.072 59.6602 129.071 60.0946 131.583 59.6975ZM129.777 61.3946C131.005 61.381 132.234 61.3674 133.462 61.3538C134.499 61.3538 135.536 61.3538 136.572 61.3538C136.355 61.6559 136.137 61.958 135.919 62.2601C131.042 62.2601 126.165 62.2601 121.288 62.2601C121.275 62.2329 121.262 62.2058 121.248 62.182C121.73 61.9546 122.407 61.9851 123.015 61.8663C125.029 61.4726 127.502 61.4658 129.777 61.3946ZM133.693 67.0763C133.987 67.7517 133.769 69.873 133.769 70.786C133.769 73.7321 133.769 76.6816 133.769 79.6277C133.105 79.9365 129.738 79.7125 128.777 79.7057C128.572 79.2407 128.79 78.4431 128.701 77.8492C128.701 76.349 128.701 74.8488 128.701 73.3486C128.701 72.534 128.701 71.716 128.701 70.9014C128.919 70.6774 129.137 70.4534 129.355 70.2294C129.84 69.6083 130.451 69.0652 130.814 68.3355C130.788 68.2812 130.761 68.2303 130.738 68.176C129.929 67.9655 128.697 68.0572 127.704 68.0572C125.604 68.0708 123.504 68.0843 121.407 68.0979C120.535 69.0177 119.667 69.9409 118.795 70.8607C118.795 70.915 118.795 70.9659 118.795 71.0202C118.871 71.0983 118.95 71.1798 119.026 71.2578C119.307 71.2714 119.591 71.285 119.871 71.2986C119.898 74.0749 119.924 76.8513 119.947 79.6277C119.244 79.9569 116.87 79.7159 115.916 79.7057C115.889 79.665 115.863 79.6277 115.84 79.587C115.84 75.4563 115.84 71.3223 115.84 67.1917C116.844 66.7301 118.508 67.4463 119.564 67.0322C124.273 67.0525 128.985 67.0661 133.693 67.0763ZM126.782 73.0363C126.769 73.0363 126.756 73.0363 126.743 73.0363C126.581 72.758 126.614 72.1505 126.627 71.6957C126.667 71.6549 126.703 71.6176 126.743 71.5769C126.934 71.5769 127.126 71.5769 127.317 71.5769C127.456 71.8823 127.367 72.4967 127.357 72.9583C127.221 73.0295 127.02 73.0465 126.782 73.0363ZM127.357 74.7741C127.152 74.7877 126.947 74.8013 126.743 74.8148C126.614 74.5399 126.611 73.7084 126.743 73.4334C126.934 73.4334 127.126 73.4334 127.317 73.4334C127.334 73.8815 127.347 74.3261 127.357 74.7741ZM126.627 75.4054C126.667 75.3511 126.703 75.3002 126.743 75.2459C126.921 75.2459 127.103 75.2459 127.281 75.2459C127.426 75.5514 127.37 76.0944 127.321 76.4304C127.116 76.444 126.911 76.4576 126.706 76.4712C126.597 76.237 126.617 75.7618 126.627 75.4054ZM126.743 76.9463C126.871 76.9192 127 76.892 127.126 76.8683C127.165 76.8819 127.202 76.8954 127.241 76.909C127.443 77.0516 127.37 77.7507 127.357 78.0935C127.212 78.1648 126.99 78.1818 126.743 78.1716C126.716 78.1309 126.69 78.0935 126.667 78.0528C126.654 77.71 126.64 77.3672 126.627 77.0278C126.667 76.9972 126.706 76.9735 126.743 76.9463ZM126.667 78.6841C126.832 78.657 127 78.6298 127.165 78.6061C127.218 78.6061 127.268 78.6061 127.321 78.6061C127.347 78.9489 127.373 79.2917 127.396 79.6311C127.396 79.6446 127.396 79.6582 127.396 79.6718C127.245 79.7465 127 79.76 126.743 79.7499C126.634 79.5123 126.657 79.0371 126.667 78.6841ZM126.168 74.7368C125.993 74.8216 125.683 74.825 125.399 74.8148C125.267 74.5297 125.313 73.9256 125.323 73.5115C125.363 73.4708 125.399 73.4334 125.438 73.3927C125.656 73.3927 125.874 73.3927 126.092 73.3927C126.224 73.688 126.178 74.3125 126.168 74.7368ZM126.129 76.3931C125.954 76.478 125.643 76.4813 125.359 76.4712C125.333 76.4304 125.306 76.3931 125.283 76.3524C125.283 76.0231 125.283 75.6939 125.283 75.3647C125.488 75.324 125.693 75.2866 125.897 75.2459C125.95 75.2595 126 75.273 126.053 75.2866C126.261 75.436 126.178 76.1182 126.129 76.3931ZM126.168 72.9209C126.013 73.0024 125.63 73.0872 125.438 72.999C125.399 72.9854 125.363 72.9718 125.323 72.9583C125.254 72.6053 125.227 71.8654 125.363 71.5769C125.63 71.5904 125.901 71.604 126.168 71.6176C126.168 72.052 126.168 72.4865 126.168 72.9209ZM125.363 76.9056C125.607 76.9056 125.848 76.9056 126.092 76.9056C126.208 77.1568 126.178 77.6761 126.168 78.0494C125.987 78.1377 125.653 78.1377 125.363 78.1275C125.24 77.8763 125.237 77.1602 125.363 76.9056ZM125.363 78.6434C125.63 78.6434 125.901 78.6434 126.168 78.6434C126.181 78.9726 126.195 79.3018 126.208 79.6311C126.02 79.7227 125.663 79.7193 125.363 79.7091C125.247 79.4749 125.247 78.8776 125.363 78.6434ZM124.861 72.9583C124.593 73.0906 123.92 73.0669 123.593 72.999C123.461 72.7139 123.507 72.1097 123.517 71.6957C123.556 71.6414 123.593 71.5904 123.632 71.5361C124.029 71.5361 124.425 71.5361 124.824 71.5361C124.983 71.8857 124.874 72.4831 124.861 72.9583ZM124.861 74.7741C124.606 74.8624 124.032 74.825 123.669 74.8522C123.655 74.8522 123.642 74.8522 123.629 74.8522C123.49 74.5501 123.543 73.9052 123.553 73.4708C123.847 73.4436 124.141 73.4165 124.435 73.3927C124.563 73.3927 124.692 73.3927 124.818 73.3927C124.983 73.7389 124.877 74.3431 124.861 74.7741ZM123.596 75.2086C123.992 75.2086 124.388 75.2086 124.788 75.2086C124.923 75.4495 124.877 75.9451 124.864 76.3931C124.6 76.5221 123.986 76.5119 123.636 76.5119C123.609 76.4712 123.583 76.4338 123.56 76.3931C123.444 76.1352 123.497 75.4122 123.596 75.2086ZM124.9 78.0902C124.643 78.2191 123.873 78.2259 123.556 78.1309C123.543 77.7609 123.53 77.3944 123.517 77.0244C123.556 76.9701 123.593 76.9192 123.632 76.8649C124.029 76.8649 124.425 76.8649 124.824 76.8649C124.946 77.1364 124.91 77.6964 124.9 78.0902ZM123.596 78.6841C124.019 78.6841 124.441 78.6841 124.864 78.6841C124.963 78.8946 124.95 79.3052 124.94 79.6311C124.636 79.8076 124.131 79.7634 123.636 79.7499C123.609 79.7091 123.583 79.6718 123.56 79.6311C123.457 79.4037 123.51 78.8538 123.596 78.6841ZM123.058 72.9583C122.916 73.0329 122.556 73.0872 122.368 72.999C122.156 72.8429 122.186 71.7839 122.292 71.5769C122.523 71.5769 122.754 71.5769 122.982 71.5769C123.008 71.6176 123.035 71.6549 123.058 71.6957C123.058 72.1165 123.058 72.5374 123.058 72.9583ZM122.942 74.8522C122.724 74.8386 122.506 74.825 122.288 74.8114C122.275 74.3498 122.262 73.8916 122.249 73.43C122.302 73.4029 122.351 73.3757 122.404 73.352C122.596 73.3656 122.787 73.3791 122.979 73.3927C123.081 73.5964 123.17 74.7402 122.942 74.8522ZM122.252 78.7215C122.51 78.7215 122.764 78.7215 123.021 78.7215C123.117 78.9251 123.107 79.312 123.097 79.6277C123.058 79.6548 123.021 79.682 122.982 79.7057C122.751 79.7193 122.52 79.7329 122.292 79.7465C122.189 79.5394 122.173 78.9862 122.252 78.7215ZM122.328 76.8683C122.546 76.8683 122.764 76.8683 122.982 76.8683C123.008 76.909 123.035 76.9463 123.058 76.9871C123.071 77.357 123.084 77.7236 123.097 78.0935C123.045 78.1207 122.995 78.1479 122.942 78.1716C122.711 78.1716 122.48 78.1716 122.252 78.1716C122.196 77.8695 122.199 77.1398 122.328 76.8683ZM123.058 76.4338C122.893 76.5153 122.602 76.5221 122.328 76.5119C122.16 76.1487 122.246 75.3274 122.368 75.0117C123.266 75.2629 123.15 75.2527 123.058 76.4338ZM121.215 78.6841C121.38 78.6841 121.549 78.6841 121.714 78.6841C121.813 78.8946 121.8 79.3052 121.79 79.6311C121.737 79.6582 121.688 79.6854 121.635 79.7091C121.519 79.7227 121.404 79.7363 121.288 79.7499C121.262 79.7091 121.235 79.6718 121.212 79.6311C121.215 79.3154 121.215 78.9998 121.215 78.6841ZM121.176 73.3927C121.215 73.3384 121.252 73.2875 121.291 73.2332C121.42 73.2603 121.549 73.2875 121.674 73.3113C121.701 73.3384 121.727 73.3656 121.75 73.3893C121.75 74.9947 121.75 76.6001 121.75 78.2056C121.697 78.2327 121.648 78.2599 121.595 78.2836C121.48 78.2972 121.364 78.3108 121.248 78.3243C120.961 77.6659 121.169 74.4008 121.176 73.3927ZM121.75 72.999C121.588 73.0872 121.46 73.1212 121.252 73.0771C121.11 72.775 121.11 71.7975 121.252 71.4988C121.407 71.5124 121.559 71.526 121.714 71.5395C121.876 71.8925 121.77 72.5646 121.75 72.999ZM171.863 77.8526C170.671 78.5382 168.413 77.8152 167.141 77.6557C165.368 77.4317 164.021 78.2157 162.532 78.4839C161.317 78.7045 160.59 78.1037 159.577 78.0902C159.577 78.0766 159.577 78.063 159.577 78.0494C160.075 77.8118 160.574 77.5742 161.076 77.3401C162.073 76.7189 162.823 75.7686 163.955 75.2866C164.398 75.0999 164.959 75.1644 165.454 74.971C167.987 75.049 169.634 77.116 171.83 77.693C171.843 77.7338 171.856 77.7711 171.87 77.8118C171.863 77.8288 171.863 77.839 171.863 77.8526ZM173.247 72.9583C172.986 74.1903 172.973 75.8195 172.401 76.8275C172.041 77.3197 169.535 75.979 169.175 75.7618C165.936 73.8102 164.239 73.8815 161.264 76.0774C160.108 75.4767 159.134 74.8522 157.348 74.8929C157.11 74.4109 157.272 73.1891 157.272 72.4458C157.259 70.6028 157.246 68.7632 157.232 66.9202C157.837 66.6249 159.986 66.7912 160.957 66.8014C160.983 66.7369 161.01 66.669 161.033 66.6045C160.316 65.1824 158.949 64.0488 157.998 62.8167C155.822 60.1455 153.647 57.4744 151.471 54.8032C150.487 53.6051 149.499 52.407 148.515 51.2123C148.142 50.7235 147.772 49.9972 147.247 49.6713C141.641 50.0922 136.034 50.5131 130.428 50.9339C130.097 49.97 130.609 50.0379 130.735 49.6306C130.695 49.315 130.659 48.9993 130.619 48.6837C130.457 48.609 125.415 48.5411 125.168 48.6429C124.606 49.0027 125.23 49.7969 125.283 50.0651C125.27 50.435 125.257 50.8016 125.244 51.1715C125.204 51.1987 125.168 51.2258 125.128 51.2496C124.474 51.3039 123.824 51.3548 123.17 51.4091C121.889 52.9738 120.611 54.5419 119.33 56.1066C117.326 58.7132 115.097 61.1468 113.07 63.7636C112.304 64.7513 111.224 65.6033 110.613 66.7233C110.626 66.7878 110.639 66.8557 110.653 66.9202C111.742 67.3173 113.638 66.6079 114.724 67.039C114.971 67.2392 114.839 68.271 114.839 68.6953C114.826 70.5111 114.813 72.327 114.8 74.1428C114.579 74.4313 113.522 74.0749 112.994 74.1835C112.317 74.3227 111.62 74.4754 111.036 74.7368C110.388 75.0253 109.778 75.6803 108.962 75.7245C106.624 74.0342 104.032 73.9052 101.166 75.1339C100.638 74.6316 100.569 71.5871 100.397 70.5552C99.6012 65.7085 100.615 59.8638 101.708 56.1846C105.356 43.8844 113.558 35.8166 124.824 31.316C127.175 30.3759 129.82 29.9822 132.58 29.4595C133.938 29.3678 135.295 29.2762 136.652 29.1845C154.961 29.2117 167.689 41.237 172.094 55.7094C173.481 60.2677 174.442 67.3139 173.247 72.9583Z" fill="white"/>
</g>
<defs>
<filter id="filter0_d_6_81" x="-4" y="0" width="586" height="164" filterUnits="userSpaceOnUse" color-interpolation-filters="sRGB">
<feFlood flood-opacity="0" result="BackgroundImageFix"/>
<feColorMatrix in="SourceAlpha" type="matrix" values="0 0 0 0 0 0 0 0 0 0 0 0 0 0 0 0 0 0 127 0" result="hardAlpha"/>
<feOffset dy="4"/>
<feGaussianBlur stdDeviation="2"/>
<feComposite in2="hardAlpha" operator="out"/>
<feColorMatrix type="matrix" values="0 0 0 0 0 0 0 0 0 0 0 0 0 0 0 0 0 0 0.25 0"/>
<feBlend mode="normal" in2="BackgroundImageFix" result="effect1_dropShadow_6_81"/>
<feBlend mode="normal" in="SourceGraphic" in2="effect1_dropShadow_6_81" result="shape"/>
</filter>
</defs>
</svg>
