<svg width="20" height="20" viewBox="0 0 20 20" fill="none" xmlns="http://www.w3.org/2000/svg">
<path d="M10.8008 0.834664C10.8008 0.61365 10.8886 0.401689 11.0448 0.245409C11.2011 0.0891282 11.4131 0.00133081 11.6341 0.00133081C13.8435 0.00375714 15.9617 0.88251 17.524 2.44479C19.0863 4.00707 19.965 6.12527 19.9674 8.33467C19.9674 8.55568 19.8796 8.76764 19.7234 8.92392C19.5671 9.0802 19.3551 9.168 19.1341 9.168C18.9131 9.168 18.7011 9.0802 18.5448 8.92392C18.3886 8.76764 18.3008 8.55568 18.3008 8.33467C18.2988 6.56716 17.5958 4.87262 16.346 3.62281C15.0961 2.373 13.4016 1.66998 11.6341 1.668C11.4131 1.668 11.2011 1.5802 11.0448 1.42392C10.8886 1.26764 10.8008 1.05568 10.8008 0.834664ZM11.6341 5.00133C12.5182 5.00133 13.366 5.35252 13.9911 5.97764C14.6162 6.60276 14.9674 7.45061 14.9674 8.33467C14.9674 8.55568 15.0552 8.76764 15.2115 8.92392C15.3678 9.0802 15.5798 9.168 15.8008 9.168C16.0218 9.168 16.2337 9.0802 16.39 8.92392C16.5463 8.76764 16.6341 8.55568 16.6341 8.33467C16.6328 7.00899 16.1056 5.73799 15.1682 4.80059C14.2308 3.8632 12.9598 3.33599 11.6341 3.33466C11.4131 3.33466 11.2011 3.42246 11.0448 3.57874C10.8886 3.73502 10.8008 3.94698 10.8008 4.168C10.8008 4.38901 10.8886 4.60097 11.0448 4.75725C11.2011 4.91353 11.4131 5.00133 11.6341 5.00133ZM19.2116 13.9505C19.6945 14.4348 19.9657 15.0908 19.9657 15.7747C19.9657 16.4586 19.6945 17.1146 19.2116 17.5988L18.4533 18.473C11.6283 25.0072 -4.98006 8.403 1.45327 1.55633L2.4116 0.722998C2.89641 0.253562 3.54655 -0.00612829 4.22136 0.000109841C4.89617 0.00634798 5.54139 0.278013 6.01744 0.756331C6.04327 0.782164 7.58744 2.788 7.58744 2.788C8.04563 3.26935 8.30069 3.90877 8.2996 4.57333C8.29852 5.2379 8.04137 5.87648 7.5816 6.35633L6.6166 7.56966C7.15064 8.86726 7.93582 10.0465 8.92703 11.0397C9.91823 12.033 11.0959 12.8205 12.3924 13.3572L13.6133 12.3863C14.0932 11.9269 14.7317 11.6701 15.396 11.6691C16.0604 11.6682 16.6996 11.9233 17.1808 12.3813C17.1808 12.3813 19.1858 13.9247 19.2116 13.9505ZM18.0649 15.1622C18.0649 15.1622 16.0708 13.628 16.0449 13.6022C15.8733 13.4319 15.6413 13.3364 15.3995 13.3364C15.1578 13.3364 14.9258 13.4319 14.7541 13.6022C14.7316 13.6255 13.0508 14.9647 13.0508 14.9647C12.9375 15.0548 12.8027 15.1139 12.6596 15.1361C12.5166 15.1583 12.3702 15.1429 12.2349 15.0913C10.5553 14.466 9.02972 13.4869 7.76147 12.2206C6.49321 10.9542 5.51194 9.43002 4.8841 7.75133C4.82843 7.61421 4.81029 7.46474 4.83152 7.31828C4.85276 7.17182 4.91261 7.03366 5.00494 6.918C5.00494 6.918 6.3441 5.23633 6.3666 5.21466C6.53683 5.04299 6.63234 4.81101 6.63234 4.56925C6.63234 4.32748 6.53683 4.09551 6.3666 3.92383C6.34077 3.89883 4.8066 1.903 4.8066 1.903C4.63235 1.74675 4.40494 1.66308 4.17098 1.66912C3.93701 1.67516 3.71422 1.77047 3.54827 1.9355L2.58994 2.76883C-2.11173 8.42216 12.2808 22.0163 17.2349 17.3347L17.9941 16.4597C18.172 16.2949 18.2789 16.0674 18.2921 15.8252C18.3053 15.5831 18.2238 15.3453 18.0649 15.1622Z" fill="white"/>
</svg>
