<svg width="12" height="12" viewBox="0 0 12 12" fill="none" xmlns="http://www.w3.org/2000/svg">
<path d="M9.5 0.5H2.5C1.8372 0.500794 1.20178 0.764441 0.73311 1.23311C0.264441 1.70178 0.000793929 2.3372 0 3L0 9C0.000793929 9.6628 0.264441 10.2982 0.73311 10.7669C1.20178 11.2356 1.8372 11.4992 2.5 11.5H9.5C10.1628 11.4992 10.7982 11.2356 11.2669 10.7669C11.7356 10.2982 11.9992 9.6628 12 9V3C11.9992 2.3372 11.7356 1.70178 11.2669 1.23311C10.7982 0.764441 10.1628 0.500794 9.5 0.5ZM2.5 1.5H9.5C9.79939 1.50059 10.0918 1.59076 10.3395 1.7589C10.5872 1.92705 10.7789 2.16547 10.89 2.4435L7.061 6.273C6.77921 6.55366 6.39771 6.71123 6 6.71123C5.60229 6.71123 5.22079 6.55366 4.939 6.273L1.11 2.4435C1.22107 2.16547 1.41281 1.92705 1.66052 1.7589C1.90824 1.59076 2.20061 1.50059 2.5 1.5ZM9.5 10.5H2.5C2.10218 10.5 1.72064 10.342 1.43934 10.0607C1.15804 9.77936 1 9.39782 1 9V3.75L4.232 6.98C4.70131 7.44813 5.33713 7.71102 6 7.71102C6.66287 7.71102 7.29869 7.44813 7.768 6.98L11 3.75V9C11 9.39782 10.842 9.77936 10.5607 10.0607C10.2794 10.342 9.89782 10.5 9.5 10.5Z" fill="#FB5B11"/>
</svg>
