<svg width="8" height="16" viewBox="0 0 8 16" fill="none" xmlns="http://www.w3.org/2000/svg">
<path d="M8 4C8 1.794 6.206 0 4 0C1.794 0 0 1.794 0 4C0 5.97867 1.444 7.626 3.33333 7.944V15.3333C3.33333 15.7013 3.632 16 4 16C4.368 16 4.66667 15.7013 4.66667 15.3333V7.944C6.556 7.626 8 5.97867 8 4ZM4 6.66667C2.52933 6.66667 1.33333 5.47067 1.33333 4C1.33333 2.52933 2.52933 1.33333 4 1.33333C5.47067 1.33333 6.66667 2.52933 6.66667 4C6.66667 5.47067 5.47067 6.66667 4 6.66667Z" fill="#FB5B11"/>
</svg>
